<svg width="50.100189" height="32.055542" viewBox="0 0 50.1002 32.0555" fill="none" xmlns="http://www.w3.org/2000/svg" xmlns:xlink="http://www.w3.org/1999/xlink">
	<desc>
			Created with Pixso.
	</desc>
	<defs/>
	<mask id="mask_0_2912" fill="white">
		<path d="M48.8006 21.3317L48.8006 24.0781L48.8002 24.0782C49.3705 24.1942 49.8002 24.6948 49.8002 25.29L49.8002 26.2777C49.8002 26.8768 49.3705 27.3756 48.8002 27.4916L48.8002 27.5166L42.2357 27.5166C41.8724 29.7567 39.9135 31.475 37.5501 31.475C35.1868 31.475 33.2279 29.7567 32.8665 27.5166L15.4855 27.5166C15.1222 29.7567 13.1633 31.475 10.8 31.475C8.43668 31.475 6.47577 29.7548 6.11444 27.5166L2.29999 27.5166L1.55194 27.5186C0.860535 27.5186 0.299988 26.9619 0.299988 26.2797L0.299988 25.292C0.299988 24.6078 0.862488 24.0531 1.55194 24.0531L2.29999 24.0531L2.29999 12.9222C2.29999 9.51086 5.10474 6.73535 8.552 6.73535L14.3215 6.73157L14.3215 4.75818C8.23599 4.1842 3.07953 3.11145 1.51898 1.56714C1.37442 1.42529 1.29861 1.2356 1.29861 1.04321C1.29861 0.926147 1.32663 0.808228 1.38422 0.699341C1.53656 0.41333 1.8569 0.254761 2.18112 0.312744C7.15762 1.19409 14.8961 1.31201 21.8061 1.31201C23.2749 1.31201 24.7183 1.30811 26.105 1.30237C27.3921 1.29846 28.6304 1.29272 29.8003 1.29272L36.2378 1.29456L36.2397 1.29456C40.5972 1.29456 43.2808 1.26562 46.7612 1.09741C47.105 1.08386 47.4233 1.3042 47.519 1.63477C47.5386 1.70251 47.5481 1.77124 47.5481 1.83923C47.5481 2.10254 47.4062 2.35352 47.1655 2.48718C46.6636 2.7655 46.0386 3.02441 45.2983 3.26416L45.2983 4.76587C45.2983 5.43469 44.9389 6.01257 44.3354 6.31409C44.0796 6.44165 43.81 6.50537 43.5424 6.50537C43.1792 6.50537 42.8179 6.3894 42.5054 6.15942L40.0854 4.38318C37.0034 4.82776 33.1872 5.10999 28.8005 5.21045L28.8005 6.7373L34.0485 6.73547C37.3925 6.73547 40.4764 7.8429 42.953 9.70422L43.1581 9.86267C45.2303 11.4763 46.8553 13.6276 47.8182 16.1035L47.824 16.1151L47.8377 16.1479C47.8631 16.2195 47.8924 16.2871 47.9178 16.3567L48.2166 17.124L48.1737 17.124C48.5799 18.4576 48.8006 19.8705 48.8006 21.3317ZM45.9823 15.6415L35.0508 15.6415C34.916 15.6415 34.8008 15.5273 34.8008 15.394L34.8008 11.4357C34.8008 11.3024 34.916 11.1884 35.0508 11.1884L42.4297 11.1884C43.9317 12.4059 45.1427 13.9271 45.9825 15.6415L45.9823 15.6415ZM43.8006 4.76587C43.8006 4.86841 43.7557 4.94177 43.662 4.98816C43.5682 5.03455 43.4842 5.02686 43.4002 4.96497L42.1424 4.04309C42.7323 3.93091 43.285 3.81116 43.8006 3.68542L43.8006 4.76587ZM21.8086 2.79834C23.2793 2.79834 24.7227 2.79248 26.1114 2.7887C27.3965 2.78284 28.6329 2.77905 29.8008 2.77905L36.2403 2.78479L36.2423 2.78479C37.9688 2.78479 39.4356 2.77905 40.7931 2.76355C36.8107 3.40332 31.3241 3.7666 25.0511 3.7666C18.2251 3.7666 12.4221 3.23315 8.38705 2.47937C12.5882 2.74805 17.3696 2.79834 21.8091 2.79834L21.8086 2.79834ZM15.8221 4.89148C18.8318 5.12927 22.0076 5.25098 25.0506 5.25098C25.8143 5.25098 26.5643 5.24524 27.3006 5.2356L27.3006 6.73535L15.8221 6.73535L15.8221 4.89148ZM10.8006 29.9908C9.00766 29.9908 7.55063 28.549 7.55063 26.7747C7.55063 25.0004 9.00766 23.5586 10.8006 23.5586C12.5936 23.5586 14.0506 25.0004 14.0506 26.7747C14.0506 28.549 12.5936 29.9908 10.8006 29.9908ZM37.5506 29.9908C35.7577 29.9908 34.3006 28.549 34.3006 26.7747C34.3006 25.0004 35.7577 23.5586 37.5506 23.5586C39.3436 23.5586 40.8006 25.0004 40.8006 26.7747C40.8006 28.549 39.3436 29.9908 37.5506 29.9908ZM42.2362 26.0325C41.8748 23.7925 39.9139 22.0742 37.5506 22.0742C35.1873 22.0742 33.2284 23.7925 32.8651 26.0325L15.4861 26.0325C15.1247 23.7925 13.1638 22.0742 10.8005 22.0742C8.43723 22.0742 6.47827 23.7925 6.11496 26.0325L1.80051 26.0325L1.80051 25.5377L4.80051 25.5377L4.80051 24.0533L3.80051 24.0533L3.80051 17.1262L11.3355 17.1262L11.3355 15.6418L3.80051 15.6418L3.80051 12.9225C3.80051 10.3306 5.93137 8.21997 8.55246 8.21997L34.0485 8.21997C36.2516 8.21997 38.3317 8.75928 40.162 9.70435L35.0505 9.70435C34.0856 9.70435 33.3005 10.4813 33.3005 11.4362L33.3005 15.3945C33.3005 16.3492 34.0856 17.1262 35.0505 17.1262L46.5975 17.1262C47.0506 18.4482 47.3006 19.8611 47.3006 21.3339L47.3006 24.0533L43.8006 24.0533L43.8006 25.5377L48.3006 25.5377L48.3006 26.0325L42.2362 26.0325Z" clip-rule="evenodd" fill="" fill-opacity="1.000000" fill-rule="evenodd"/>
	</mask>
	<path d="M48.8006 21.3317L48.8006 24.0781L48.8002 24.0782C49.3705 24.1942 49.8002 24.6948 49.8002 25.29L49.8002 26.2777C49.8002 26.8768 49.3705 27.3756 48.8002 27.4916L48.8002 27.5166L42.2357 27.5166C41.8724 29.7567 39.9135 31.475 37.5501 31.475C35.1868 31.475 33.2279 29.7567 32.8665 27.5166L15.4855 27.5166C15.1222 29.7567 13.1633 31.475 10.8 31.475C8.43668 31.475 6.47577 29.7548 6.11444 27.5166L2.29999 27.5166L1.55194 27.5186C0.860535 27.5186 0.299988 26.9619 0.299988 26.2797L0.299988 25.292C0.299988 24.6078 0.862488 24.0531 1.55194 24.0531L2.29999 24.0531L2.29999 12.9222C2.29999 9.51086 5.10474 6.73535 8.552 6.73535L14.3215 6.73157L14.3215 4.75818C8.23599 4.1842 3.07953 3.11145 1.51898 1.56714C1.37442 1.42529 1.29861 1.2356 1.29861 1.04321C1.29861 0.926147 1.32663 0.808228 1.38422 0.699341C1.53656 0.41333 1.8569 0.254761 2.18112 0.312744C7.15762 1.19409 14.8961 1.31201 21.8061 1.31201C23.2749 1.31201 24.7183 1.30811 26.105 1.30237C27.3921 1.29846 28.6304 1.29272 29.8003 1.29272L36.2378 1.29456L36.2397 1.29456C40.5972 1.29456 43.2808 1.26562 46.7612 1.09741C47.105 1.08386 47.4233 1.3042 47.519 1.63477C47.5386 1.70251 47.5481 1.77124 47.5481 1.83923C47.5481 2.10254 47.4062 2.35352 47.1655 2.48718C46.6636 2.7655 46.0386 3.02441 45.2983 3.26416L45.2983 4.76587C45.2983 5.43469 44.9389 6.01257 44.3354 6.31409C44.0796 6.44165 43.81 6.50537 43.5424 6.50537C43.1792 6.50537 42.8179 6.3894 42.5054 6.15942L40.0854 4.38318C37.0034 4.82776 33.1872 5.10999 28.8005 5.21045L28.8005 6.7373L34.0485 6.73547C37.3925 6.73547 40.4764 7.8429 42.953 9.70422L43.1581 9.86267C45.2303 11.4763 46.8553 13.6276 47.8182 16.1035L47.824 16.1151L47.8377 16.1479C47.8631 16.2195 47.8924 16.2871 47.9178 16.3567L48.2166 17.124L48.1737 17.124C48.5799 18.4576 48.8006 19.8705 48.8006 21.3317ZM45.9823 15.6415L35.0508 15.6415C34.916 15.6415 34.8008 15.5273 34.8008 15.394L34.8008 11.4357C34.8008 11.3024 34.916 11.1884 35.0508 11.1884L42.4297 11.1884C43.9317 12.4059 45.1427 13.9271 45.9825 15.6415L45.9823 15.6415ZM43.8006 4.76587C43.8006 4.86841 43.7557 4.94177 43.662 4.98816C43.5682 5.03455 43.4842 5.02686 43.4002 4.96497L42.1424 4.04309C42.7323 3.93091 43.285 3.81116 43.8006 3.68542L43.8006 4.76587ZM21.8086 2.79834C23.2793 2.79834 24.7227 2.79248 26.1114 2.7887C27.3965 2.78284 28.6329 2.77905 29.8008 2.77905L36.2403 2.78479L36.2423 2.78479C37.9688 2.78479 39.4356 2.77905 40.7931 2.76355C36.8107 3.40332 31.3241 3.7666 25.0511 3.7666C18.2251 3.7666 12.4221 3.23315 8.38705 2.47937C12.5882 2.74805 17.3696 2.79834 21.8091 2.79834L21.8086 2.79834ZM15.8221 4.89148C18.8318 5.12927 22.0076 5.25098 25.0506 5.25098C25.8143 5.25098 26.5643 5.24524 27.3006 5.2356L27.3006 6.73535L15.8221 6.73535L15.8221 4.89148ZM10.8006 29.9908C9.00766 29.9908 7.55063 28.549 7.55063 26.7747C7.55063 25.0004 9.00766 23.5586 10.8006 23.5586C12.5936 23.5586 14.0506 25.0004 14.0506 26.7747C14.0506 28.549 12.5936 29.9908 10.8006 29.9908ZM37.5506 29.9908C35.7577 29.9908 34.3006 28.549 34.3006 26.7747C34.3006 25.0004 35.7577 23.5586 37.5506 23.5586C39.3436 23.5586 40.8006 25.0004 40.8006 26.7747C40.8006 28.549 39.3436 29.9908 37.5506 29.9908ZM42.2362 26.0325C41.8748 23.7925 39.9139 22.0742 37.5506 22.0742C35.1873 22.0742 33.2284 23.7925 32.8651 26.0325L15.4861 26.0325C15.1247 23.7925 13.1638 22.0742 10.8005 22.0742C8.43723 22.0742 6.47827 23.7925 6.11496 26.0325L1.80051 26.0325L1.80051 25.5377L4.80051 25.5377L4.80051 24.0533L3.80051 24.0533L3.80051 17.1262L11.3355 17.1262L11.3355 15.6418L3.80051 15.6418L3.80051 12.9225C3.80051 10.3306 5.93137 8.21997 8.55246 8.21997L34.0485 8.21997C36.2516 8.21997 38.3317 8.75928 40.162 9.70435L35.0505 9.70435C34.0856 9.70435 33.3005 10.4813 33.3005 11.4362L33.3005 15.3945C33.3005 16.3492 34.0856 17.1262 35.0505 17.1262L46.5975 17.1262C47.0506 18.4482 47.3006 19.8611 47.3006 21.3339L47.3006 24.0533L43.8006 24.0533L43.8006 25.5377L48.3006 25.5377L48.3006 26.0325L42.2362 26.0325Z" clip-rule="evenodd" fill="#FFFFFF" fill-opacity="1.000000" fill-rule="evenodd" mask="url(#mask_0_2912)"/>
	<path d="M49.1006 21.3317L49.1006 24.3035L48.8838 24.3663L48.8002 24.0782L48.86 23.7843Q49.1222 23.8376 49.3518 23.9758Q49.5764 24.1111 49.7444 24.3121Q49.9139 24.5153 50.0054 24.7615Q50.1002 25.0167 50.1002 25.29L50.1002 26.2777Q50.1002 26.5524 50.0055 26.8081Q49.9141 27.0548 49.7443 27.2581Q49.5765 27.4591 49.3516 27.5944Q49.1223 27.7322 48.86 27.7855L48.8002 27.4916L49.1002 27.4916L49.1002 27.8167L42.2357 27.8167L42.2357 27.5166L42.5318 27.5647Q42.3885 28.4485 41.9432 29.2289Q41.5082 29.9911 40.8378 30.564Q40.1626 31.1407 39.3337 31.4523Q38.4753 31.775 37.5501 31.775Q36.6249 31.775 35.7666 31.4523Q34.9377 31.1407 34.2627 30.564Q33.5924 29.9911 33.1578 29.2288Q32.7129 28.4482 32.5704 27.5645L32.8665 27.5166L32.8665 27.8167L15.4855 27.8167L15.4855 27.5166L15.7817 27.5647Q15.6383 28.4485 15.1931 29.2289Q14.7581 29.9911 14.0876 30.564Q13.4124 31.1407 12.5836 31.4523Q11.7252 31.775 10.8 31.775Q9.87482 31.775 9.01605 31.452Q8.18701 31.1403 7.5116 30.5632Q6.84094 29.9902 6.40607 29.228Q5.96085 28.4476 5.81827 27.5645L6.11444 27.5166L6.11444 27.8167L2.29999 27.8167L1.5527 27.8186Q1.23694 27.8186 0.948578 27.6976Q0.670288 27.5808 0.455566 27.368Q0.240662 27.1553 0.122559 26.879Q0 26.5925 0 26.2797L0 25.292Q0 24.9785 0.122894 24.6917Q0.241241 24.4154 0.456512 24.2026Q0.671326 23.9904 0.949554 23.8738Q1.23764 23.7531 1.55194 23.7531L2.29999 23.7531L2.29999 24.0531L2 24.0531L2 12.9222Q2 11.6042 2.5163 10.3983Q3.01462 9.2345 3.92224 8.3363Q4.82956 7.43848 6.00479 6.94568Q7.22189 6.43542 8.552 6.43542L14.3213 6.43152L14.3215 6.73157L14.0215 6.73157L14.0215 4.75818L14.3215 4.75818L14.2933 5.05688Q9.4437 4.59937 6.15408 3.81836Q2.48785 2.948 1.30798 1.7804Q1.15811 1.6333 1.07751 1.43909Q0.998627 1.24902 0.998627 1.04321Q0.998627 0.786621 1.11905 0.559082Q1.27985 0.25708 1.58667 0.107422Q1.89523 -0.0430908 2.23395 0.0174561Q5.58264 0.610474 11.2808 0.84314Q15.4171 1.01196 21.8061 1.01196L26.1043 1.00232L29.7995 0.992676L36.2379 0.994629L36.2397 0.994629Q39.7529 0.994629 41.8242 0.959106Q44.277 0.917114 46.7468 0.797852Q47.11 0.783447 47.4059 0.991821Q47.7065 1.20337 47.8072 1.55127Q47.8481 1.69263 47.8481 1.83923Q47.8481 2.11975 47.7062 2.36304Q47.562 2.61011 47.3112 2.74939Q46.5382 3.17798 45.3907 3.54956L45.2983 3.26416L45.5983 3.26416L45.5983 4.76587Q45.5983 5.35315 45.2979 5.83618Q44.998 6.31836 44.4695 6.5824Q44.0223 6.80542 43.5424 6.80542Q42.8769 6.80542 42.3275 6.401L39.908 4.62512L40.0854 4.38318L40.1283 4.68018Q35.4232 5.35876 28.8073 5.51038L28.8005 5.21045L29.1005 5.21045L29.1005 6.7373L28.8005 6.7373L28.8004 6.43738L34.0483 6.43542Q36.5627 6.43542 38.9226 7.23779Q41.2017 8.0127 43.1332 9.46436L43.3415 9.62524Q44.9366 10.8674 46.1442 12.4799Q47.3645 14.1093 48.0978 15.9948L47.8182 16.1035L48.0859 15.9681L48.0968 15.9896L48.1178 16.04L48.1204 16.0475Q48.1323 16.0809 48.1598 16.1504Q48.1865 16.2179 48.1996 16.2538L48.6554 17.424L48.1737 17.424L48.1737 17.124L48.4606 17.0365Q49.1006 19.1373 49.1006 21.3317ZM48.5006 21.3317Q48.5006 19.2268 47.8867 17.2114L47.7687 16.824L48.2166 16.824L48.2166 17.124L47.9371 17.2328L47.636 16.4595Q47.6256 16.4312 47.6019 16.3713Q47.5704 16.2917 47.555 16.2483L47.8377 16.1479L47.5607 16.2632L47.5471 16.2303L47.824 16.1151L47.5563 16.2504L47.5439 16.2257L47.5386 16.2122Q46.8351 14.4032 45.664 12.8396Q44.5045 11.2914 42.9746 10.1L42.7727 9.94397Q40.9178 8.54993 38.7294 7.80591Q36.4636 7.0354 34.0486 7.0354L28.5005 7.03748L28.5005 4.91724L28.7936 4.91052Q35.3733 4.75977 40.0426 4.0863L40.1641 4.06885L42.6832 5.91785Q43.0739 6.20544 43.5424 6.20544Q43.881 6.20544 44.2013 6.04565Q44.5781 5.85742 44.7884 5.51929Q44.9983 5.18176 44.9983 4.76587L44.9983 3.0459L45.2059 2.97864Q46.2981 2.62512 47.0198 2.22485Q47.1267 2.16553 47.1879 2.06055Q47.2481 1.95752 47.2481 1.83923Q47.2481 1.77771 47.2309 1.71826Q47.1887 1.57275 47.0604 1.48242Q46.9306 1.39099 46.7757 1.39709Q44.2966 1.51685 41.8345 1.55908Q39.7581 1.5946 36.2397 1.5946L36.2377 1.5946L29.8011 1.59265L26.1057 1.60229L21.8061 1.61206Q15.4048 1.61206 11.2563 1.44263Q5.51779 1.20837 2.1283 0.608032Q1.98233 0.582031 1.84976 0.646606Q1.7179 0.710938 1.64941 0.8396Q1.59863 0.935547 1.59863 1.04321Q1.59863 1.22498 1.73001 1.35388Q2.25858 1.87695 3.43564 2.35889Q4.5834 2.82886 6.29269 3.23462Q9.54163 4.00598 14.3497 4.45947L14.6215 4.48511L14.6215 7.03137L8.552 7.0354Q7.34259 7.0354 6.23682 7.49902Q5.16888 7.94678 4.3443 8.76282Q3.52002 9.57849 3.06787 10.6345Q2.59998 11.7273 2.59998 12.9222L2.59998 24.3531L1.55194 24.3531Q1.35822 24.3531 1.18137 24.4271Q1.01041 24.4988 0.878326 24.6294Q0.746521 24.7596 0.674408 24.928Q0.599976 25.1017 0.599976 25.292L0.599976 26.2797Q0.599976 26.4696 0.674194 26.6431Q0.746216 26.8115 0.877808 26.9419Q1.0098 27.0726 1.18069 27.1443Q1.35773 27.2186 1.55118 27.2186L2.29999 27.2167L6.3699 27.2167L6.41061 27.4689Q6.53586 28.2448 6.92722 28.9307Q7.31021 29.6021 7.90134 30.1071Q8.49673 30.6157 9.22726 30.8904Q9.98392 31.1749 10.8 31.1749Q11.6161 31.1749 12.3725 30.8906Q13.1028 30.6162 13.6979 30.1078Q14.2888 29.6029 14.6719 28.9315Q15.0634 28.2454 15.1894 27.4686L15.2303 27.2167L33.122 27.2167L33.1627 27.4689Q33.288 28.2455 33.6791 28.9316Q34.0618 29.6029 34.6525 30.1078Q35.2474 30.6162 35.9777 30.8906Q36.734 31.1749 37.5501 31.1749Q38.3663 31.1749 39.1226 30.8906Q39.8529 30.6162 40.4481 30.1078Q41.0389 29.6029 41.4221 28.9315Q41.8136 28.2454 41.9395 27.4686L41.9804 27.2167L48.8002 27.2167L48.8002 27.5166L48.5002 27.5166L48.5002 27.2463L48.7404 27.1975Q49.0691 27.1307 49.2838 26.8735Q49.5002 26.6144 49.5002 26.2777L49.5002 25.29Q49.5002 24.9559 49.2838 24.6967Q49.0686 24.439 48.7404 24.3722L48.7166 23.7902L48.717 23.79L48.8006 24.0781L48.5006 24.0781L48.5006 21.3317ZM45.9823 15.9414L35.0508 15.9414Q34.8264 15.9414 34.6642 15.781Q34.5008 15.6193 34.5008 15.394L34.5008 11.4357Q34.5008 11.2104 34.6642 11.0487Q34.8264 10.8883 35.0508 10.8883L42.5361 10.8883L42.6187 10.9553Q43.7691 11.8879 44.689 13.0416Q45.6069 14.1927 46.2519 15.5094L46.4636 15.9414L45.9823 15.9414ZM45.9823 15.3414L45.9825 15.3414L45.9825 15.6415L45.7131 15.7734Q45.0969 14.5155 44.2198 13.4156Q43.3406 12.3129 42.2408 11.4214L42.4297 11.1884L42.4297 11.4883L35.0508 11.4883Q35.1008 11.4883 35.1008 11.4357L35.1008 15.394Q35.1008 15.3689 35.0862 15.3545Q35.073 15.3414 35.0508 15.3414L45.9823 15.3414ZM44.1006 4.76587Q44.1006 4.92859 44.0213 5.05627Q43.9418 5.18445 43.795 5.25708Q43.6491 5.32922 43.5007 5.31604Q43.353 5.30273 43.2223 5.20654L41.4086 3.87708L42.0864 3.74829Q42.9457 3.58496 43.7296 3.39404L44.1006 3.30359L44.1006 4.76587ZM43.5006 4.76587L43.5006 3.68542L43.8006 3.68542L43.8716 3.97693Q43.0728 4.17163 42.1984 4.33777L42.1424 4.04309L42.3198 3.80103L43.5781 4.72339L43.5775 4.72375Q43.5671 4.71948 43.5541 4.71838Q43.541 4.71716 43.53 4.7196L43.5289 4.71924Q43.5223 4.72253 43.5116 4.73987Q43.5006 4.75745 43.5006 4.76587ZM21.808 2.49829L26.1107 2.48865L29.8 2.479L36.2406 2.48474L36.2423 2.48474L40.7917 2.4635L40.8406 3.05969Q37.8133 3.54602 33.8003 3.80432Q29.726 4.06665 25.0511 4.06665Q20.1143 4.06665 15.6482 3.70471Q11.5228 3.37036 8.33197 2.77429L8.40622 2.17993Q11.2831 2.36401 15.0148 2.43958Q17.9066 2.49829 21.8091 2.49829L21.8362 3.09705L21.8358 3.09705L21.8086 2.79834L21.808 2.49829ZM21.8093 3.09827L21.7815 2.49951L21.7819 2.49951L21.8091 2.79834L21.8091 3.09827Q17.9005 3.09827 15.0026 3.03955Q11.2578 2.96362 8.36792 2.77881L8.38705 2.47937L8.44217 2.18445Q11.6024 2.7749 15.6967 3.10669Q20.1386 3.46667 25.0511 3.46667Q29.7067 3.46667 33.7618 3.20557Q37.7463 2.9491 40.7455 2.46729L40.7931 2.76355L40.7945 3.06348L36.2423 3.08484L36.2401 3.08484L29.8016 3.07898L26.112 3.08862L21.8093 3.09827ZM15.8457 4.59253Q20.3853 4.95105 25.0506 4.95105L27.6006 4.93347L27.6006 7.0354L15.5221 7.0354L15.5221 4.56689L15.8457 4.59253ZM15.7985 5.19055L15.8221 4.89148L16.1221 4.89148L16.1221 6.73535L15.8221 6.73535L15.8221 6.43542L27.3006 6.43542L27.3006 6.73535L27.0006 6.73535L27.0006 5.2356L27.3006 5.2356L27.3027 5.53552L25.0506 5.55103Q20.3616 5.55103 15.7985 5.19055ZM10.8006 30.2909Q10.0799 30.2909 9.42044 30.0145Q8.78366 29.7477 8.29224 29.2614Q7.80048 28.7748 7.53049 28.1438Q7.25061 27.4897 7.25061 26.7747Q7.25061 26.0597 7.53049 25.4056Q7.80048 24.7747 8.29224 24.288Q8.78366 23.8018 9.42044 23.5349Q10.0799 23.2585 10.8006 23.2585Q11.5214 23.2585 12.1808 23.5349Q12.8176 23.8018 13.309 24.288Q13.8008 24.7747 14.0707 25.4056Q14.3506 26.0597 14.3506 26.7747Q14.3506 27.4897 14.0707 28.1438Q13.8008 28.7748 13.309 29.2614Q12.8176 29.7477 12.1808 30.0145Q11.5214 30.2909 10.8006 30.2909ZM10.8006 29.6908Q11.4007 29.6908 11.9489 29.4612Q12.4783 29.2393 12.887 28.8348Q13.2953 28.4308 13.5191 27.9077Q13.7506 27.3667 13.7506 26.7747Q13.7506 26.1826 13.5191 25.6417Q13.2953 25.1185 12.887 24.7145Q12.4783 24.3101 11.9489 24.0883Q11.4007 23.8585 10.8006 23.8585Q10.2005 23.8585 9.65234 24.0883Q9.12296 24.3101 8.71426 24.7145Q8.30594 25.1185 8.08209 25.6417Q7.85062 26.1826 7.85062 26.7747Q7.85062 27.3667 8.08209 27.9077Q8.30594 28.4308 8.71426 28.8348Q9.12296 29.2393 9.65234 29.4612Q10.2005 29.6908 10.8006 29.6908ZM37.5506 30.2909Q36.8299 30.2909 36.1704 30.0145Q35.5337 29.7477 35.0422 29.2614Q34.5505 28.7748 34.2805 28.1438Q34.0006 27.4897 34.0006 26.7747Q34.0006 26.0597 34.2805 25.4056Q34.5505 24.7747 35.0422 24.288Q35.5337 23.8018 36.1704 23.5349Q36.8299 23.2585 37.5506 23.2585Q38.2714 23.2585 38.9308 23.5349Q39.5675 23.8018 40.059 24.288Q40.5508 24.7747 40.8207 25.4056Q41.1006 26.0597 41.1006 26.7747Q41.1006 27.4897 40.8207 28.1438Q40.5508 28.7748 40.059 29.2614Q39.5675 29.7477 38.9308 30.0145Q38.2714 30.2909 37.5506 30.2909ZM37.5506 29.6908Q38.1507 29.6908 38.6989 29.4612Q39.2283 29.2393 39.637 28.8348Q40.0453 28.4308 40.2691 27.9077Q40.5006 27.3667 40.5006 26.7747Q40.5006 26.1826 40.2691 25.6417Q40.0453 25.1185 39.637 24.7145Q39.2283 24.3101 38.6989 24.0883Q38.1507 23.8585 37.5506 23.8585Q36.9505 23.8585 36.4023 24.0883Q35.873 24.3101 35.4643 24.7145Q35.0559 25.1185 34.8321 25.6417Q34.6006 26.1826 34.6006 26.7747Q34.6006 27.3667 34.8321 27.9077Q35.0559 28.4308 35.4643 28.8348Q35.873 29.2393 36.4023 29.4612Q36.9505 29.6908 37.5506 29.6908ZM41.94 26.0803Q41.8147 25.3037 41.4234 24.6177Q41.0404 23.9463 40.4493 23.4414Q39.854 22.933 39.1234 22.6584Q38.3668 22.3741 37.5506 22.3741Q36.7345 22.3741 35.9781 22.6584Q35.2478 22.933 34.6527 23.4414Q34.0618 23.9463 33.6787 24.6177Q33.2872 25.3037 33.1612 26.0806L33.1203 26.3325L15.2306 26.3325L15.1899 26.0803Q15.0646 25.3037 14.6733 24.6177Q14.2903 23.9463 13.6992 23.4414Q13.1039 22.933 12.3733 22.6584Q11.6167 22.3741 10.8005 22.3741Q9.98438 22.3741 9.22803 22.6584Q8.49771 22.933 7.90262 23.4414Q7.31171 23.9463 6.92859 24.6177Q6.53708 25.3038 6.4111 26.0806L6.37024 26.3325L1.50052 26.3325L1.50052 25.2377L4.80051 25.2377L4.80051 25.5377L4.50052 25.5377L4.50052 24.0533L4.80051 24.0533L4.80051 24.3534L3.50052 24.3534L3.50052 16.8263L11.3355 16.8263L11.3355 17.1262L11.0355 17.1262L11.0355 15.6418L11.3355 15.6418L11.3355 15.9419L3.50052 15.9419L3.50052 12.9225Q3.50052 11.9062 3.89862 10.9762Q4.28281 10.0787 4.98251 9.38611Q5.68204 8.6936 6.58817 8.3136Q7.52673 7.92004 8.55246 7.92004L34.0485 7.92004Q35.7115 7.92004 37.317 8.31653Q38.8719 8.70056 40.2996 9.43787L40.162 10.0044L35.0505 10.0044Q34.7554 10.0044 34.486 10.1173Q34.2257 10.2264 34.0247 10.4254Q33.8239 10.624 33.714 10.8809Q33.6005 11.146 33.6005 11.4362L33.6005 15.3945Q33.6005 15.6847 33.714 15.9498Q33.8239 16.2065 34.0247 16.4052Q34.2257 16.6041 34.486 16.7133Q34.7554 16.8263 35.0505 16.8263L46.8118 16.8263L46.8813 17.0289Q47.6006 19.1276 47.6006 21.3339L47.6006 24.3534L43.8006 24.3534L43.8006 24.0533L44.1006 24.0533L44.1006 25.5377L43.8006 25.5377L43.8006 25.2377L48.6006 25.2377L48.6006 26.3325L41.9807 26.3325L41.94 26.0803ZM42.5323 25.9847L42.2362 26.0325L42.2362 25.7325L48.3006 25.7325L48.3006 26.0325L48.0005 26.0325L48.0005 25.5377L48.3006 25.5377L48.3006 25.8378L43.5005 25.8378L43.5005 23.7533L47.3006 23.7533L47.3006 24.0533L47.0005 24.0533L47.0005 21.3339Q47.0005 19.2275 46.3137 17.2235L46.5975 17.1262L46.5975 17.4263L35.0505 17.4263Q34.6347 17.4263 34.254 17.2666Q33.8864 17.1124 33.6026 16.8317Q33.3185 16.5505 33.1624 16.1859Q33.0005 15.8077 33.0005 15.3945L33.0005 11.4362Q33.0005 11.0229 33.1624 10.6447Q33.3185 10.28 33.6026 9.99902Q33.8864 9.71814 34.254 9.56409Q34.6347 9.40442 35.0505 9.40442L40.162 9.40442L40.162 9.70435L40.0243 9.97095Q38.6594 9.26611 37.1731 8.89905Q35.6385 8.52002 34.0485 8.52002L8.55246 8.52002Q7.64743 8.52002 6.82022 8.86694Q6.02142 9.2019 5.40463 9.8125Q4.78824 10.4226 4.4502 11.2123Q4.10052 12.0292 4.10052 12.9225L4.10052 15.6418L3.80051 15.6418L3.80051 15.3419L11.6355 15.3419L11.6355 17.4263L3.80051 17.4263L3.80051 17.1262L4.10052 17.1262L4.10052 24.0533L3.80051 24.0533L3.80051 23.7533L5.10052 23.7533L5.10052 25.8378L1.80051 25.8378L1.80051 25.5377L2.10052 25.5377L2.10052 26.0325L1.80051 26.0325L1.80051 25.7325L6.11496 25.7325L6.11496 26.0325L5.81885 25.9845Q5.96219 25.1006 6.40744 24.3203Q6.84241 23.558 7.51288 22.9852Q8.18805 22.4084 9.01691 22.0968Q9.87534 21.7742 10.8005 21.7742Q11.7257 21.7742 12.5844 22.0968Q13.4135 22.4084 14.0889 22.9852Q14.7596 23.5581 15.1944 24.3203Q15.6397 25.1008 15.7822 25.9847L15.4861 26.0325L15.4861 25.7325L32.8651 25.7325L32.8651 26.0325L32.5689 25.9845Q32.7123 25.1006 33.1575 24.3203Q33.5925 23.558 34.263 22.9852Q34.9381 22.4084 35.767 22.0968Q36.6254 21.7742 37.5506 21.7742Q38.4758 21.7742 39.3345 22.0968Q40.1636 22.4084 40.839 22.9852Q41.5097 23.5581 41.9445 24.3203Q42.3898 25.1008 42.5323 25.9847Z" fill="#222532" fill-opacity="1.000000" fill-rule="nonzero"/>
	<mask id="mask_0_2921" fill="white">
		<path d="M22.8006 11.4358L22.8006 15.394C22.8006 16.3489 22.0154 17.1259 21.0506 17.1259L16.0506 17.1259C15.0858 17.1259 14.3006 16.3489 14.3006 15.394L14.3006 11.4358C14.3006 10.481 15.0858 9.70398 16.0506 9.70398L21.0506 9.70398C22.0154 9.70398 22.8006 10.481 22.8006 11.4358ZM15.8006 11.4358L15.8006 15.394C15.8006 15.5294 15.9158 15.6415 16.0506 15.6415L21.0506 15.6415C21.1854 15.6415 21.3006 15.5275 21.3006 15.394L21.3006 11.4358C21.3006 11.3024 21.1854 11.1884 21.0506 11.1884L16.0506 11.1884C15.9158 11.1884 15.8006 11.3024 15.8006 11.4358Z" clip-rule="evenodd" fill="" fill-opacity="1.000000" fill-rule="evenodd"/>
	</mask>
	<path d="M22.8006 11.4358L22.8006 15.394C22.8006 16.3489 22.0154 17.1259 21.0506 17.1259L16.0506 17.1259C15.0858 17.1259 14.3006 16.3489 14.3006 15.394L14.3006 11.4358C14.3006 10.481 15.0858 9.70398 16.0506 9.70398L21.0506 9.70398C22.0154 9.70398 22.8006 10.481 22.8006 11.4358ZM15.8006 11.4358L15.8006 15.394C15.8006 15.5294 15.9158 15.6415 16.0506 15.6415L21.0506 15.6415C21.1854 15.6415 21.3006 15.5275 21.3006 15.394L21.3006 11.4358C21.3006 11.3024 21.1854 11.1884 21.0506 11.1884L16.0506 11.1884C15.9158 11.1884 15.8006 11.3024 15.8006 11.4358Z" clip-rule="evenodd" fill="#FFFFFF" fill-opacity="1.000000" fill-rule="evenodd" mask="url(#mask_0_2921)"/>
	<path d="M23.1006 11.4358L23.1006 15.394Q23.1006 15.8073 22.9386 16.1855Q22.7825 16.5502 22.4984 16.8313Q22.2147 17.1121 21.8471 17.2662Q21.4663 17.4259 21.0506 17.4259L16.0506 17.4259Q15.6349 17.4259 15.2541 17.2662Q14.8865 17.1121 14.6028 16.8313Q14.3187 16.5502 14.1626 16.1855Q14.0006 15.8073 14.0006 15.394L14.0006 11.4358Q14.0006 11.0226 14.1626 10.6443Q14.3187 10.2797 14.6028 9.99854Q14.8865 9.71777 15.2541 9.5636Q15.6349 9.40393 16.0506 9.40393L21.0506 9.40393Q21.4663 9.40393 21.8471 9.5636Q22.2147 9.71777 22.4984 9.99854Q22.7825 10.2797 22.9386 10.6443Q23.1006 11.0226 23.1006 11.4358ZM22.5006 11.4358Q22.5006 11.1456 22.3871 10.8805Q22.2771 10.6237 22.0764 10.425Q21.8754 10.2261 21.6151 10.1169Q21.3456 10.004 21.0506 10.004L16.0506 10.004Q15.7556 10.004 15.4861 10.1169Q15.2258 10.2261 15.0248 10.425Q14.8241 10.6237 14.7141 10.8805Q14.6006 11.1456 14.6006 11.4358L14.6006 15.394Q14.6006 15.6842 14.7141 15.9493Q14.8241 16.2062 15.0248 16.4048Q15.2258 16.6038 15.4861 16.7129Q15.7556 16.8258 16.0506 16.8258L21.0506 16.8258Q21.3456 16.8258 21.6151 16.7129Q21.8754 16.6038 22.0764 16.4048Q22.2771 16.2062 22.3871 15.9493Q22.5006 15.6842 22.5006 15.394L22.5006 11.4358ZM16.1006 11.4358L16.1006 15.394Q16.1006 15.3414 16.0506 15.3414L21.0506 15.3414Q21.0006 15.3414 21.0006 15.394L21.0006 11.4358Q21.0006 11.4884 21.0506 11.4884L16.0506 11.4884Q16.1006 11.4884 16.1006 11.4358ZM15.5006 11.4358Q15.5006 11.2106 15.664 11.0488Q15.8262 10.8883 16.0506 10.8883L21.0506 10.8883Q21.275 10.8883 21.4372 11.0488Q21.6006 11.2106 21.6006 11.4358L21.6006 15.394Q21.6006 15.6193 21.4372 15.781Q21.275 15.9415 21.0506 15.9415L16.0506 15.9415Q15.8263 15.9415 15.6646 15.7823Q15.5006 15.6208 15.5006 15.394L15.5006 11.4358Z" fill="#222532" fill-opacity="1.000000" fill-rule="nonzero"/>
	<mask id="mask_0_2924" fill="white">
		<path d="M25.5506 9.70398L30.5506 9.70398C31.5154 9.70398 32.3006 10.481 32.3006 11.4358L32.3006 15.394C32.3006 16.3489 31.5154 17.1259 30.5506 17.1259L25.5506 17.1259C24.5858 17.1259 23.8006 16.3489 23.8006 15.394L23.8006 11.4358C23.8006 10.481 24.5858 9.70398 25.5506 9.70398ZM30.5506 15.6415C30.6854 15.6415 30.8006 15.5275 30.8006 15.394L30.8006 11.4358C30.8006 11.3024 30.6854 11.1884 30.5506 11.1884L25.5506 11.1884C25.4158 11.1884 25.3006 11.3024 25.3006 11.4358L25.3006 15.394C25.3006 15.5275 25.4158 15.6415 25.5506 15.6415L30.5506 15.6415Z" clip-rule="evenodd" fill="" fill-opacity="1.000000" fill-rule="evenodd"/>
	</mask>
	<path d="M25.5506 9.70398L30.5506 9.70398C31.5154 9.70398 32.3006 10.481 32.3006 11.4358L32.3006 15.394C32.3006 16.3489 31.5154 17.1259 30.5506 17.1259L25.5506 17.1259C24.5858 17.1259 23.8006 16.3489 23.8006 15.394L23.8006 11.4358C23.8006 10.481 24.5858 9.70398 25.5506 9.70398ZM30.5506 15.6415C30.6854 15.6415 30.8006 15.5275 30.8006 15.394L30.8006 11.4358C30.8006 11.3024 30.6854 11.1884 30.5506 11.1884L25.5506 11.1884C25.4158 11.1884 25.3006 11.3024 25.3006 11.4358L25.3006 15.394C25.3006 15.5275 25.4158 15.6415 25.5506 15.6415L30.5506 15.6415Z" clip-rule="evenodd" fill="#FFFFFF" fill-opacity="1.000000" fill-rule="evenodd" mask="url(#mask_0_2924)"/>
	<path d="M25.5506 9.40393L30.5506 9.40393Q30.9663 9.40393 31.3471 9.5636Q31.7147 9.71777 31.9984 9.99854Q32.2825 10.2797 32.4386 10.6443Q32.6006 11.0226 32.6006 11.4358L32.6006 15.394Q32.6006 15.8073 32.4386 16.1855Q32.2825 16.5502 31.9984 16.8313Q31.7147 17.1121 31.3471 17.2662Q30.9663 17.4259 30.5506 17.4259L25.5506 17.4259Q25.1349 17.4259 24.7541 17.2662Q24.3865 17.1121 24.1028 16.8313Q23.8187 16.5502 23.6626 16.1855Q23.5006 15.8073 23.5006 15.394L23.5006 11.4358Q23.5006 11.0226 23.6626 10.6443Q23.8187 10.2797 24.1028 9.99854Q24.3865 9.71777 24.7541 9.5636Q25.1349 9.40393 25.5506 9.40393ZM25.5506 10.004Q25.2556 10.004 24.9861 10.1169Q24.7258 10.2261 24.5248 10.425Q24.3241 10.6237 24.2141 10.8805Q24.1006 11.1456 24.1006 11.4358L24.1006 15.394Q24.1006 15.6842 24.2141 15.9493Q24.3241 16.2062 24.5248 16.4048Q24.7258 16.6038 24.9861 16.7129Q25.2556 16.8258 25.5506 16.8258L30.5506 16.8258Q30.8456 16.8258 31.1151 16.7129Q31.3754 16.6038 31.5764 16.4048Q31.7771 16.2062 31.8871 15.9493Q32.0006 15.6842 32.0006 15.394L32.0006 11.4358Q32.0006 11.1456 31.8871 10.8805Q31.7771 10.6237 31.5764 10.425Q31.3754 10.2261 31.1151 10.1169Q30.8456 10.004 30.5506 10.004L25.5506 10.004ZM30.5506 15.3414Q30.5006 15.3414 30.5006 15.394L30.5006 11.4358Q30.5006 11.4884 30.5506 11.4884L25.5506 11.4884Q25.6006 11.4884 25.6006 11.4358L25.6006 15.394Q25.6006 15.3414 25.5506 15.3414L30.5506 15.3414ZM30.5506 15.9415L25.5506 15.9415Q25.3262 15.9415 25.164 15.781Q25.0006 15.6193 25.0006 15.394L25.0006 11.4358Q25.0006 11.2106 25.164 11.0488Q25.3262 10.8883 25.5506 10.8883L30.5506 10.8883Q30.775 10.8883 30.9372 11.0488Q31.1006 11.2106 31.1006 11.4358L31.1006 15.394Q31.1006 15.6193 30.9372 15.781Q30.775 15.9415 30.5506 15.9415Z" fill="#222532" fill-opacity="1.000000" fill-rule="nonzero"/>
	<mask id="mask_0_2927" fill="white">
		<path d="M35.5506 26.7743C35.5506 25.6824 36.4471 24.7952 37.5506 24.7952C38.6541 24.7952 39.5506 25.6842 39.5506 26.7743C39.5506 27.8663 38.6541 28.7535 37.5506 28.7535C36.4471 28.7535 35.5506 27.8663 35.5506 26.7743ZM37.0506 26.7743C37.0506 27.0469 37.2752 27.2692 37.5506 27.2692C37.826 27.2692 38.0506 27.0469 38.0506 26.7743C38.0506 26.5018 37.826 26.2795 37.5506 26.2795C37.2752 26.2795 37.0506 26.5018 37.0506 26.7743Z" clip-rule="evenodd" fill="" fill-opacity="1.000000" fill-rule="evenodd"/>
	</mask>
	<path d="M35.5506 26.7743C35.5506 25.6824 36.4471 24.7952 37.5506 24.7952C38.6541 24.7952 39.5506 25.6842 39.5506 26.7743C39.5506 27.8663 38.6541 28.7535 37.5506 28.7535C36.4471 28.7535 35.5506 27.8663 35.5506 26.7743ZM37.0506 26.7743C37.0506 27.0469 37.2752 27.2692 37.5506 27.2692C37.826 27.2692 38.0506 27.0469 38.0506 26.7743C38.0506 26.5018 37.826 26.2795 37.5506 26.2795C37.2752 26.2795 37.0506 26.5018 37.0506 26.7743Z" clip-rule="evenodd" fill="#FFFFFF" fill-opacity="1.000000" fill-rule="evenodd" mask="url(#mask_0_2927)"/>
	<path d="M35.2506 26.7743Q35.2506 26.3105 35.4321 25.8864Q35.6071 25.4773 35.9258 25.162Q36.2441 24.847 36.6566 24.6742Q37.0838 24.4951 37.5506 24.4951Q38.0174 24.4951 38.4447 24.6744Q38.8571 24.8475 39.1755 25.1628Q39.494 25.4783 39.6691 25.8872Q39.8506 26.3113 39.8506 26.7743Q39.8506 27.238 39.6691 27.6622Q39.4941 28.0713 39.1754 28.3866Q38.8571 28.7017 38.4446 28.8745Q38.0174 29.0535 37.5506 29.0535Q37.0838 29.0535 36.6566 28.8745Q36.2441 28.7017 35.9258 28.3866Q35.6071 28.0713 35.4321 27.6622Q35.2506 27.238 35.2506 26.7743ZM35.8506 26.7743Q35.8506 27.1151 35.9837 27.4263Q36.1126 27.7274 36.3478 27.9602Q36.5833 28.1932 36.8885 28.3212Q37.2044 28.4535 37.5506 28.4535Q37.8968 28.4535 38.2127 28.3212Q38.5179 28.1932 38.7534 27.9602Q38.9886 27.7274 39.1175 27.4263Q39.2506 27.1151 39.2506 26.7743Q39.2506 26.4343 39.1175 26.1233Q38.9886 25.8221 38.7533 25.5891Q38.5177 25.3558 38.2126 25.2278Q37.8966 25.0952 37.5506 25.0952Q37.2044 25.0952 36.8885 25.2275Q36.5833 25.3553 36.3478 25.5885Q36.1126 25.8213 35.9837 26.1224Q35.8506 26.4336 35.8506 26.7743ZM37.3506 26.7743Q37.3506 26.8535 37.4084 26.9106Q37.4674 26.9691 37.5506 26.9691Q37.6338 26.9691 37.6928 26.9106Q37.7506 26.8535 37.7506 26.7743Q37.7506 26.6951 37.6928 26.6379Q37.6338 26.5796 37.5506 26.5796Q37.4674 26.5796 37.4084 26.6379Q37.3506 26.6951 37.3506 26.7743ZM36.7506 26.7743Q36.7506 26.4447 36.9863 26.2115Q37.2207 25.9795 37.5506 25.9795Q37.8805 25.9795 38.1149 26.2115Q38.3506 26.4447 38.3506 26.7743Q38.3506 27.1039 38.1149 27.3372Q37.8805 27.5691 37.5506 27.5691Q37.2207 27.5691 36.9863 27.3372Q36.7506 27.1039 36.7506 26.7743Z" fill="#222532" fill-opacity="1.000000" fill-rule="nonzero"/>
	<mask id="mask_0_2930" fill="white">
		<path d="M8.8006 26.7743C8.8006 25.6824 9.69711 24.7952 10.8006 24.7952C11.9041 24.7952 12.8006 25.6842 12.8006 26.7743C12.8006 27.8663 11.9041 28.7535 10.8006 28.7535C9.69711 28.7535 8.8006 27.8644 8.8006 26.7743ZM10.3006 26.7743C10.3006 27.0469 10.5252 27.2692 10.8006 27.2692C11.076 27.2692 11.3006 27.0469 11.3006 26.7743C11.3006 26.5018 11.076 26.2795 10.8006 26.2795C10.5252 26.2795 10.3006 26.5018 10.3006 26.7743Z" clip-rule="evenodd" fill="" fill-opacity="1.000000" fill-rule="evenodd"/>
	</mask>
	<path d="M8.8006 26.7743C8.8006 25.6824 9.69711 24.7952 10.8006 24.7952C11.9041 24.7952 12.8006 25.6842 12.8006 26.7743C12.8006 27.8663 11.9041 28.7535 10.8006 28.7535C9.69711 28.7535 8.8006 27.8644 8.8006 26.7743ZM10.3006 26.7743C10.3006 27.0469 10.5252 27.2692 10.8006 27.2692C11.076 27.2692 11.3006 27.0469 11.3006 26.7743C11.3006 26.5018 11.076 26.2795 10.8006 26.2795C10.5252 26.2795 10.3006 26.5018 10.3006 26.7743Z" clip-rule="evenodd" fill="#FFFFFF" fill-opacity="1.000000" fill-rule="evenodd" mask="url(#mask_0_2930)"/>
	<path d="M8.50061 26.7743Q8.50061 26.3105 8.6821 25.8864Q8.85712 25.4773 9.17578 25.162Q9.49408 24.847 9.90662 24.6742Q10.3338 24.4951 10.8006 24.4951Q11.2674 24.4951 11.6947 24.6744Q12.1071 24.8475 12.4255 25.1628Q12.744 25.4783 12.9191 25.8872Q13.1006 26.3113 13.1006 26.7743Q13.1006 27.238 12.9191 27.6622Q12.7441 28.0713 12.4254 28.3866Q12.1071 28.7017 11.6946 28.8745Q11.2674 29.0535 10.8006 29.0535Q10.3338 29.0535 9.90646 28.8741Q9.49405 28.7012 9.17569 28.3859Q8.85715 28.0704 8.68213 27.6615Q8.50061 27.2374 8.50061 26.7743ZM9.10059 26.7743Q9.10059 27.1144 9.2337 27.4254Q9.36261 27.7266 9.59787 27.9595Q9.83353 28.1929 10.1386 28.3209Q10.4546 28.4535 10.8006 28.4535Q11.1468 28.4535 11.4627 28.3212Q11.7679 28.1932 12.0034 27.9602Q12.2386 27.7274 12.3675 27.4263Q12.5006 27.1151 12.5006 26.7743Q12.5006 26.4343 12.3675 26.1233Q12.2386 25.8221 12.0033 25.5891Q11.7677 25.3558 11.4626 25.2278Q11.1466 25.0952 10.8006 25.0952Q10.4544 25.0952 10.1385 25.2275Q9.83334 25.3553 9.59781 25.5885Q9.36258 25.8213 9.23373 26.1224Q9.10059 26.4336 9.10059 26.7743ZM10.6006 26.7743Q10.6006 26.8535 10.6584 26.9106Q10.7174 26.9691 10.8006 26.9691Q10.8838 26.9691 10.9428 26.9106Q11.0006 26.8535 11.0006 26.7743Q11.0006 26.6951 10.9428 26.6379Q10.8838 26.5796 10.8006 26.5796Q10.7174 26.5796 10.6584 26.6379Q10.6006 26.6951 10.6006 26.7743ZM10.0006 26.7743Q10.0006 26.4447 10.2363 26.2115Q10.4707 25.9795 10.8006 25.9795Q11.1305 25.9795 11.3649 26.2115Q11.6006 26.4447 11.6006 26.7743Q11.6006 27.1039 11.3649 27.3372Q11.1305 27.5691 10.8006 27.5691Q10.4707 27.5691 10.2363 27.3372Q10.0006 27.1039 10.0006 26.7743Z" fill="#222532" fill-opacity="1.000000" fill-rule="nonzero"/>
	<path d="M16.3 24.05L31.8 24.05L31.8 25.53L16.3 25.53L16.3 24.05Z" fill="#FFFFFF" fill-opacity="1.000000" fill-rule="nonzero"/>
	<path d="M31.8 24.05L31.8 25.53L16.3 25.53L16.3 24.05L31.8 24.05Z" stroke="#222532" stroke-opacity="1.000000" stroke-width="0.600000"/>
</svg>
