<svg width="59.450134" height="46.417603" viewBox="0 0 59.4501 46.4176" fill="none" xmlns="http://www.w3.org/2000/svg" xmlns:xlink="http://www.w3.org/1999/xlink">
	<desc>
			Created with Pixso.
	</desc>
	<defs/>
	<mask id="mask_0_2953" fill="white">
		<path d="M58.8514 43.0688C58.8655 43.0427 58.8772 43.0143 58.8867 42.9858C58.8984 42.9573 58.9055 42.9265 58.9149 42.8956C58.9219 42.8671 58.929 42.8386 58.9337 42.8102C58.9407 42.777 58.9431 42.7413 58.9454 42.7081C58.9478 42.6891 58.9501 42.6725 58.9501 42.6536C58.9501 42.644 58.9478 42.6345 58.9478 42.625C58.9478 42.5918 58.9431 42.5586 58.9384 42.5254L58.9243 42.4329C58.9219 42.4233 58.9219 42.4115 58.9196 42.402C58.8537 42.1575 57.1558 36.5685 43.2762 35.7474C48.584 13.7595 38.4739 1.38501 38.013 0.839355C37.8343 0.625732 37.5732 0.504761 37.2957 0.504761L37.157 0.5C37.0887 0.5 37.0229 0.50708 36.9594 0.521362C36.943 0.526123 36.9265 0.533203 36.91 0.535645C36.863 0.547485 36.8183 0.561646 36.7736 0.580688C36.7525 0.59021 36.7336 0.602051 36.7148 0.613892C36.6772 0.635254 36.6419 0.654297 36.6067 0.677979C36.5855 0.692261 36.5667 0.708862 36.5479 0.727783C36.5173 0.753906 36.4891 0.780029 36.4608 0.810913C36.4538 0.820435 36.4444 0.825195 36.435 0.834595C35.9741 1.38281 25.8144 13.821 31.2188 35.9159C26.2332 36.4237 23.7072 37.5676 21.9763 38.7234C21.9293 38.2203 21.7999 37.8145 21.5365 37.5012C21.2731 37.1855 20.8992 37.0052 20.4853 36.991C17.9219 36.9103 15.4456 40.2305 14.0345 42.5159C13.6746 40.7834 13.4912 38.6119 14.2837 37.3873C14.6765 36.7821 15.3044 36.457 16.2051 36.3977C18.6227 36.2386 19.5069 35.2847 19.8244 34.5133C20.1889 33.6257 19.9584 32.6123 19.1894 31.7319C18.0793 30.4574 15.81 29.4891 13.2349 30.1917C9.7778 31.1338 6.70633 35.3986 5.73523 38.9774C4.98502 41.7399 5.38248 44.1036 6.85703 45.6295C7.22153 46.0068 7.81415 46.0139 8.18805 45.6484C8.55963 45.283 8.56903 44.6826 8.20688 44.3053C6.87106 42.9216 7.22388 40.686 7.55078 39.478C8.48441 36.0416 11.2547 32.6978 13.7265 32.0234C15.5091 31.5345 17.0753 32.1801 17.7762 32.9845C18.0396 33.286 18.1595 33.6016 18.0843 33.7867C17.9714 34.0643 17.3788 34.4156 16.083 34.5011C14.5919 34.5984 13.4255 35.2367 12.7059 36.3475C10.7845 39.3187 12.633 44.6892 12.8493 45.2925C12.9763 45.6484 13.3032 45.8929 13.6772 45.9142C13.696 45.9166 13.7148 45.9166 13.7336 45.9166C14.0863 45.9166 14.4132 45.7173 14.5731 45.3945C15.8665 42.8101 18.3594 39.257 20.1161 38.9106C20.1647 39.4573 20.0174 40.5808 19.9208 41.3175L19.9162 41.3528C19.6458 43.389 19.5141 44.6753 20.1702 45.4299C20.4407 45.7433 20.824 45.9165 21.245 45.9165C22.5737 45.9165 23.2345 45.024 23.7143 44.3739C24.1682 43.7592 24.3399 43.593 24.6762 43.593C25.0148 43.593 25.1865 43.7592 25.6381 44.3715C26.1202 45.0217 26.7786 45.9141 28.1074 45.9141C29.4362 45.9141 30.097 45.0217 30.5767 44.3715C31.0306 43.7567 31.2023 43.5906 31.5386 43.5906C31.8773 43.5906 32.049 43.7567 32.5005 44.369C32.9826 45.0193 33.6411 45.9116 34.9698 45.9116C36.3009 45.9116 36.9594 45.0193 37.4391 44.369C37.893 43.7567 38.0624 43.5906 38.401 43.5906C38.7397 43.5906 38.9113 43.7567 39.3629 44.369C39.845 45.0193 40.5035 45.9116 41.8346 45.9116C43.1633 45.9116 43.8242 45.0193 44.3039 44.369C44.7578 43.7543 44.9295 43.5881 45.2658 43.5881C45.6045 43.5881 45.7761 43.7543 46.2277 44.3666C46.7098 45.0168 47.3683 45.9092 48.697 45.9092C50.0281 45.9092 50.6866 45.0168 51.1687 44.3666C51.6226 43.7543 51.7919 43.5881 52.1306 43.5881C52.4692 43.5881 52.6409 43.7543 53.0925 44.369C53.5746 45.0193 54.233 45.9116 55.5618 45.9116C57.1116 45.9116 57.4949 44.6776 57.6783 44.0842C57.7277 43.9252 57.81 43.6571 57.8547 43.6049C57.8547 43.6049 57.8923 43.5883 57.9982 43.5883C58.0758 43.5883 58.151 43.5763 58.2239 43.5574C58.2333 43.5551 58.2404 43.5574 58.2498 43.5551C58.2709 43.5503 58.2874 43.5408 58.3062 43.5337C58.3368 43.5217 58.3674 43.5123 58.3956 43.498C58.4262 43.4838 58.452 43.4672 58.4803 43.453C58.5038 43.4387 58.5296 43.4221 58.5508 43.4078C58.5767 43.3889 58.6025 43.3676 58.6261 43.3438C58.6472 43.3248 58.666 43.3058 58.6848 43.2869C58.706 43.2631 58.7272 43.2369 58.746 43.2133C58.7625 43.1896 58.7789 43.1682 58.7954 43.1421C58.8236 43.123 58.8377 43.0969 58.8518 43.0685L58.8514 43.0688ZM38.0972 38.6713L40.5289 38.6713C45.8839 20.9982 40.8463 9.08423 38.0972 4.35425L38.0972 38.6713ZM36.2158 4.60339L36.2158 38.6713L33.9229 38.6713C28.6714 21.342 33.4454 9.50391 36.2158 4.60339ZM55.7165 44.0085C55.7612 43.9564 55.8435 43.6882 55.8929 43.5292L55.8921 43.5293C56.0027 43.1732 56.1908 42.5895 56.6541 42.1788C55.6125 40.8499 52.3272 38.1206 42.7909 37.6246C42.5839 38.377 42.3605 39.1388 42.1159 39.9125C41.9912 40.3064 41.6291 40.5746 41.2199 40.5746L33.229 40.5746C32.8198 40.5746 32.4576 40.3064 32.333 39.9125C32.1072 39.1909 31.9003 38.4813 31.7051 37.7812C25.6587 38.3556 23.4951 39.8864 21.8418 41.1774C21.823 41.3197 21.8066 41.4597 21.7854 41.6117C21.6937 42.3046 21.5526 43.3726 21.5808 43.9421C21.7525 43.8401 21.9265 43.6312 22.2087 43.2468C22.6909 42.5966 23.3494 41.7042 24.6804 41.7042C26.0092 41.7042 26.6676 42.5966 27.1497 43.2468C27.6013 43.8591 27.773 44.0253 28.1116 44.0253C28.4503 44.0253 28.6196 43.8591 29.0735 43.2468C29.5556 42.5966 30.2141 41.7042 31.5452 41.7042C32.8739 41.7042 33.5324 42.5966 34.0145 43.2468C34.4684 43.8591 34.6401 44.0253 34.9764 44.0253C35.315 44.0253 35.4844 43.8591 35.9383 43.2468C36.418 42.5966 37.0765 41.7042 38.4076 41.7042C39.7364 41.7042 40.3948 42.5966 40.8769 43.2468C41.3308 43.8615 41.5025 44.0276 41.8412 44.0276C42.1798 44.0276 42.3492 43.8616 42.803 43.2493C43.2852 42.599 43.9437 41.7067 45.2747 41.7067C46.6035 41.7067 47.262 42.599 47.744 43.2493C48.1956 43.8615 48.3673 44.0276 48.7059 44.0276C49.0446 44.0276 49.2163 43.8615 49.6702 43.2468C50.1499 42.5966 50.8108 41.7042 52.1395 41.7042C53.4706 41.7042 54.1291 42.5966 54.6112 43.2468C55.0651 43.8591 55.2368 44.0253 55.5731 44.0253C55.6789 44.0253 55.7165 44.0085 55.7165 44.0085Z" clip-rule="evenodd" fill="" fill-opacity="1.000000" fill-rule="evenodd"/>
	</mask>
	<path d="M58.8514 43.0688C58.8655 43.0427 58.8772 43.0143 58.8867 42.9858C58.8984 42.9573 58.9055 42.9265 58.9149 42.8956C58.9219 42.8671 58.929 42.8386 58.9337 42.8102C58.9407 42.777 58.9431 42.7413 58.9454 42.7081C58.9478 42.6891 58.9501 42.6725 58.9501 42.6536C58.9501 42.644 58.9478 42.6345 58.9478 42.625C58.9478 42.5918 58.9431 42.5586 58.9384 42.5254L58.9243 42.4329C58.9219 42.4233 58.9219 42.4115 58.9196 42.402C58.8537 42.1575 57.1558 36.5685 43.2762 35.7474C48.584 13.7595 38.4739 1.38501 38.013 0.839355C37.8343 0.625732 37.5732 0.504761 37.2957 0.504761L37.157 0.5C37.0887 0.5 37.0229 0.50708 36.9594 0.521362C36.943 0.526123 36.9265 0.533203 36.91 0.535645C36.863 0.547485 36.8183 0.561646 36.7736 0.580688C36.7525 0.59021 36.7336 0.602051 36.7148 0.613892C36.6772 0.635254 36.6419 0.654297 36.6067 0.677979C36.5855 0.692261 36.5667 0.708862 36.5479 0.727783C36.5173 0.753906 36.4891 0.780029 36.4608 0.810913C36.4538 0.820435 36.4444 0.825195 36.435 0.834595C35.9741 1.38281 25.8144 13.821 31.2188 35.9159C26.2332 36.4237 23.7072 37.5676 21.9763 38.7234C21.9293 38.2203 21.7999 37.8145 21.5365 37.5012C21.2731 37.1855 20.8992 37.0052 20.4853 36.991C17.9219 36.9103 15.4456 40.2305 14.0345 42.5159C13.6746 40.7834 13.4912 38.6119 14.2837 37.3873C14.6765 36.7821 15.3044 36.457 16.2051 36.3977C18.6227 36.2386 19.5069 35.2847 19.8244 34.5133C20.1889 33.6257 19.9584 32.6123 19.1894 31.7319C18.0793 30.4574 15.81 29.4891 13.2349 30.1917C9.7778 31.1338 6.70633 35.3986 5.73523 38.9774C4.98502 41.7399 5.38248 44.1036 6.85703 45.6295C7.22153 46.0068 7.81415 46.0139 8.18805 45.6484C8.55963 45.283 8.56903 44.6826 8.20688 44.3053C6.87106 42.9216 7.22388 40.686 7.55078 39.478C8.48441 36.0416 11.2547 32.6978 13.7265 32.0234C15.5091 31.5345 17.0753 32.1801 17.7762 32.9845C18.0396 33.286 18.1595 33.6016 18.0843 33.7867C17.9714 34.0643 17.3788 34.4156 16.083 34.5011C14.5919 34.5984 13.4255 35.2367 12.7059 36.3475C10.7845 39.3187 12.633 44.6892 12.8493 45.2925C12.9763 45.6484 13.3032 45.8929 13.6772 45.9142C13.696 45.9166 13.7148 45.9166 13.7336 45.9166C14.0863 45.9166 14.4132 45.7173 14.5731 45.3945C15.8665 42.8101 18.3594 39.257 20.1161 38.9106C20.1647 39.4573 20.0174 40.5808 19.9208 41.3175L19.9162 41.3528C19.6458 43.389 19.5141 44.6753 20.1702 45.4299C20.4407 45.7433 20.824 45.9165 21.245 45.9165C22.5737 45.9165 23.2345 45.024 23.7143 44.3739C24.1682 43.7592 24.3399 43.593 24.6762 43.593C25.0148 43.593 25.1865 43.7592 25.6381 44.3715C26.1202 45.0217 26.7786 45.9141 28.1074 45.9141C29.4362 45.9141 30.097 45.0217 30.5767 44.3715C31.0306 43.7567 31.2023 43.5906 31.5386 43.5906C31.8773 43.5906 32.049 43.7567 32.5005 44.369C32.9826 45.0193 33.6411 45.9116 34.9698 45.9116C36.3009 45.9116 36.9594 45.0193 37.4391 44.369C37.893 43.7567 38.0624 43.5906 38.401 43.5906C38.7397 43.5906 38.9113 43.7567 39.3629 44.369C39.845 45.0193 40.5035 45.9116 41.8346 45.9116C43.1633 45.9116 43.8242 45.0193 44.3039 44.369C44.7578 43.7543 44.9295 43.5881 45.2658 43.5881C45.6045 43.5881 45.7761 43.7543 46.2277 44.3666C46.7098 45.0168 47.3683 45.9092 48.697 45.9092C50.0281 45.9092 50.6866 45.0168 51.1687 44.3666C51.6226 43.7543 51.7919 43.5881 52.1306 43.5881C52.4692 43.5881 52.6409 43.7543 53.0925 44.369C53.5746 45.0193 54.233 45.9116 55.5618 45.9116C57.1116 45.9116 57.4949 44.6776 57.6783 44.0842C57.7277 43.9252 57.81 43.6571 57.8547 43.6049C57.8547 43.6049 57.8923 43.5883 57.9982 43.5883C58.0758 43.5883 58.151 43.5763 58.2239 43.5574C58.2333 43.5551 58.2404 43.5574 58.2498 43.5551C58.2709 43.5503 58.2874 43.5408 58.3062 43.5337C58.3368 43.5217 58.3674 43.5123 58.3956 43.498C58.4262 43.4838 58.452 43.4672 58.4803 43.453C58.5038 43.4387 58.5296 43.4221 58.5508 43.4078C58.5767 43.3889 58.6025 43.3676 58.6261 43.3438C58.6472 43.3248 58.666 43.3058 58.6848 43.2869C58.706 43.2631 58.7272 43.2369 58.746 43.2133C58.7625 43.1896 58.7789 43.1682 58.7954 43.1421C58.8236 43.123 58.8377 43.0969 58.8518 43.0685L58.8514 43.0688ZM38.0972 38.6713L40.5289 38.6713C45.8839 20.9982 40.8463 9.08423 38.0972 4.35425L38.0972 38.6713ZM36.2158 4.60339L36.2158 38.6713L33.9229 38.6713C28.6714 21.342 33.4454 9.50391 36.2158 4.60339ZM55.7165 44.0085C55.7612 43.9564 55.8435 43.6882 55.8929 43.5292L55.8921 43.5293C56.0027 43.1732 56.1908 42.5895 56.6541 42.1788C55.6125 40.8499 52.3272 38.1206 42.7909 37.6246C42.5839 38.377 42.3605 39.1388 42.1159 39.9125C41.9912 40.3064 41.6291 40.5746 41.2199 40.5746L33.229 40.5746C32.8198 40.5746 32.4576 40.3064 32.333 39.9125C32.1072 39.1909 31.9003 38.4813 31.7051 37.7812C25.6587 38.3556 23.4951 39.8864 21.8418 41.1774C21.823 41.3197 21.8066 41.4597 21.7854 41.6117C21.6937 42.3046 21.5526 43.3726 21.5808 43.9421C21.7525 43.8401 21.9265 43.6312 22.2087 43.2468C22.6909 42.5966 23.3494 41.7042 24.6804 41.7042C26.0092 41.7042 26.6676 42.5966 27.1497 43.2468C27.6013 43.8591 27.773 44.0253 28.1116 44.0253C28.4503 44.0253 28.6196 43.8591 29.0735 43.2468C29.5556 42.5966 30.2141 41.7042 31.5452 41.7042C32.8739 41.7042 33.5324 42.5966 34.0145 43.2468C34.4684 43.8591 34.6401 44.0253 34.9764 44.0253C35.315 44.0253 35.4844 43.8591 35.9383 43.2468C36.418 42.5966 37.0765 41.7042 38.4076 41.7042C39.7364 41.7042 40.3948 42.5966 40.8769 43.2468C41.3308 43.8615 41.5025 44.0276 41.8412 44.0276C42.1798 44.0276 42.3492 43.8616 42.803 43.2493C43.2852 42.599 43.9437 41.7067 45.2747 41.7067C46.6035 41.7067 47.262 42.599 47.744 43.2493C48.1956 43.8615 48.3673 44.0276 48.7059 44.0276C49.0446 44.0276 49.2163 43.8615 49.6702 43.2468C50.1499 42.5966 50.8108 41.7042 52.1395 41.7042C53.4706 41.7042 54.1291 42.5966 54.6112 43.2468C55.0651 43.8591 55.2368 44.0253 55.5731 44.0253C55.6789 44.0253 55.7165 44.0085 55.7165 44.0085Z" clip-rule="evenodd" fill="#FFFFFF" fill-opacity="1.000000" fill-rule="evenodd" mask="url(#mask_0_2953)"/>
	<path d="M58.4115 42.8312Q58.4103 42.8333 58.4101 42.834Q58.4109 42.832 58.4119 42.829L58.4175 42.8118L58.4245 42.795Q58.4215 42.8022 58.4203 42.8059Q58.4214 42.8024 58.4255 42.7881Q58.4322 42.7643 58.4366 42.7498L58.9149 42.8956L58.4295 42.7754Q58.4389 42.7377 58.4404 42.7286L58.4422 42.7174L58.4446 42.7063Q58.4438 42.71 58.4435 42.7124Q58.4436 42.7114 58.4439 42.7087Q58.4447 42.7006 58.4464 42.6763L58.4466 42.6746L58.4467 42.6727L58.4476 42.6597L58.4492 42.6467Q58.4496 42.6438 58.45 42.6403Q58.4508 42.6339 58.451 42.632L58.451 42.6323Q58.4501 42.6421 58.4501 42.6536Q58.4501 42.6796 58.4528 42.7007Q58.4478 42.6606 58.4478 42.625Q58.4478 42.6287 58.4479 42.631Q58.4479 42.6304 58.4476 42.6281Q58.4468 42.6201 58.4433 42.5955L58.43 42.5082L58.9243 42.4329L58.4389 42.553Q58.4297 42.5159 58.4249 42.4722Q58.4274 42.4946 58.4342 42.5221Q58.4127 42.4425 58.3416 42.2843Q58.2057 41.9816 57.9848 41.6542Q57.2814 40.6115 55.9896 39.6993Q54.1703 38.4149 51.421 37.5775Q47.9679 36.5259 43.2466 36.2466L42.6498 36.2113L42.7901 35.6301Q44.6016 28.1261 44.2584 21.118Q43.9825 15.4823 42.3323 10.4071Q41.678 8.39465 40.8258 6.53503Q40.1358 5.0293 39.3452 3.68542Q38.7653 2.69958 38.1826 1.88513Q37.8543 1.42627 37.631 1.16211Q37.4994 1.00476 37.2957 1.00476L37.2872 1.00476L37.1399 0.999756L37.157 0.5L37.157 1Q37.11 1 37.0688 1.00928L36.9594 0.521362L37.0979 1.00183Q37.1022 1.00061 37.1055 0.999512Q37.1053 0.999512 37.1024 1.00049Q37.0374 1.02246 36.9814 1.03052L36.91 0.535645L37.0323 1.02039Q36.9954 1.02979 36.9692 1.04089Q36.988 1.03247 36.9945 1.02869Q36.9927 1.02979 36.9816 1.03687L36.9718 1.04297L36.9617 1.04871Q36.9539 1.0531 36.9398 1.06104Q36.8981 1.08459 36.8857 1.0929Q36.8987 1.08411 36.903 1.07983L36.8884 1.0946L36.8726 1.10803Q36.8456 1.1311 36.8298 1.14832L36.4608 0.810913L36.8622 1.10913Q36.8194 1.16675 36.7586 1.21521Q36.7736 1.20325 36.7901 1.18652L36.435 0.834595L36.8177 1.15637Q36.59 1.42725 36.2637 1.88391Q35.6783 2.703 35.0966 3.69348Q34.3033 5.04443 33.6118 6.5575Q32.7575 8.42664 32.1031 10.4492Q30.4526 15.5502 30.1885 21.2135Q29.86 28.2565 31.7045 35.7971L31.841 36.3551L31.2695 36.4133Q27.902 36.7563 25.5362 37.5507Q24.5357 37.8866 23.6723 38.3163Q22.9433 38.679 22.254 39.1393L21.5565 39.605L21.4785 38.77Q21.4195 38.1389 21.1538 37.823Q20.8886 37.5051 20.4681 37.4907Q19.6971 37.4664 18.834 37.9376Q18.0349 38.3739 17.1797 39.2213Q15.8315 40.5571 14.4599 42.7786L13.8002 43.847L13.5449 42.6176Q13.2155 41.0315 13.227 39.7566Q13.2421 38.0765 13.864 37.1157Q14.5858 36.0033 16.1722 35.8988Q17.6832 35.7994 18.5357 35.2621Q19.1295 34.8878 19.362 34.323Q19.5751 33.8041 19.4445 33.2311Q19.3065 32.626 18.8128 32.0608Q18.4315 31.623 17.8853 31.2772Q17.3025 30.9082 16.6157 30.6986Q15.8741 30.4724 15.0855 30.4567Q14.2266 30.4393 13.3664 30.674Q12.2065 30.9901 11.0399 31.8595Q9.93649 32.6819 8.94135 33.9105Q7.99011 35.0848 7.27393 36.4584Q6.57095 37.8068 6.21777 39.1084Q5.68372 41.075 5.9549 42.6841Q6.21866 44.2494 7.21655 45.2821Q7.34515 45.4152 7.52579 45.4176Q7.70645 45.42 7.83856 45.2909Q7.96994 45.1617 7.97269 44.974Q7.9754 44.7861 7.84613 44.6515Q6.83105 43.6001 6.75577 41.8473Q6.7059 40.686 7.06815 39.3474Q7.42688 38.027 8.12064 36.7235Q8.78897 35.4677 9.67679 34.396Q10.5706 33.317 11.5519 32.5881Q12.5935 31.8142 13.5949 31.541Q14.3037 31.3467 15.0181 31.3542Q15.6758 31.3612 16.2945 31.5382Q16.8716 31.7034 17.3581 31.9989Q17.831 32.2863 18.1532 32.6561Q18.4084 32.9481 18.5242 33.2505Q18.6783 33.6531 18.5475 33.975Q18.3706 34.41 17.7172 34.6785Q17.0911 34.9357 16.1158 35Q15.1078 35.0658 14.3451 35.4829Q13.5966 35.8922 13.1255 36.6194Q12.5274 37.5443 12.3848 38.9637Q12.2649 40.1567 12.4712 41.639Q12.6257 42.7493 12.9477 43.9261Q13.1319 44.5992 13.32 45.1237Q13.3649 45.2495 13.4707 45.3289Q13.5757 45.4076 13.7056 45.415L13.7227 45.416L13.7397 45.4182Q13.7289 45.4167 13.7211 45.4165Q13.7227 45.4166 13.7336 45.4166Q13.8572 45.4166 13.9626 45.3513Q14.0691 45.2855 14.1251 45.1725Q14.643 44.1376 15.315 43.0729Q16.0355 41.9314 16.7806 41.0007Q18.627 38.6947 20.0194 38.4202L20.5649 38.3126L20.6142 38.8665Q20.6501 39.2711 20.5706 40.0911Q20.5269 40.5408 20.4166 41.3824L20.412 41.4177Q20.2928 42.3146 20.2473 42.7904Q20.1858 43.4315 20.1956 43.8606Q20.206 44.3145 20.2955 44.6204Q20.3802 44.9094 20.5475 45.1019Q20.8191 45.4165 21.245 45.4165Q21.9484 45.4165 22.491 44.9944Q22.7104 44.8236 22.9334 44.5637Q23.0728 44.4012 23.312 44.077Q23.5038 43.8173 23.625 43.6721Q23.7835 43.4822 23.9188 43.3693Q24.2494 43.093 24.6762 43.093Q25.1042 43.093 25.4348 43.3685Q25.5704 43.4814 25.7287 43.671Q25.8496 43.8158 26.0405 44.0746L26.0406 44.0748L26.0414 44.0759L26.0431 44.0782Q26.2843 44.4036 26.4227 44.5645Q26.6457 44.8239 26.8647 44.9938Q27.4058 45.4141 28.1074 45.4141Q28.8108 45.4141 29.3534 44.9919Q29.5729 44.8212 29.7958 44.5613Q29.9351 44.3988 30.1744 44.0746Q30.3662 43.8148 30.4874 43.6697Q30.6459 43.4799 30.7812 43.3668Q31.1118 43.0906 31.5386 43.0906Q31.9667 43.0906 32.2973 43.3661Q32.4328 43.479 32.5911 43.6686Q32.712 43.8134 32.9029 44.0723L32.903 44.0724L32.9038 44.0735L32.9055 44.0758Q33.1467 44.4011 33.2851 44.562Q33.5081 44.8214 33.7271 44.9913Q34.2682 45.4116 34.9698 45.4116Q35.6745 45.4116 36.2166 44.9896Q36.4357 44.8191 36.6584 44.5591Q36.7966 44.3977 37.0368 44.0721Q37.2298 43.8118 37.3497 43.6683Q37.5081 43.4789 37.6429 43.3663Q37.9731 43.0906 38.401 43.0906Q38.8291 43.0906 39.1597 43.3661Q39.2953 43.479 39.4536 43.6686Q39.5745 43.8135 39.7653 44.0723L39.7663 44.0735L39.7671 44.0746L39.7679 44.0758Q40.0091 44.4011 40.1475 44.562Q40.3706 44.8213 40.5897 44.9912Q41.1313 45.4116 41.8346 45.4116Q42.538 45.4116 43.0806 44.9895Q43.3 44.8188 43.523 44.5588Q43.6623 44.3964 43.9016 44.0721Q44.0934 43.8124 44.2146 43.6672Q44.3731 43.4774 44.5084 43.3644Q44.839 43.0881 45.2658 43.0881Q45.6939 43.0881 46.0245 43.3636Q46.16 43.4766 46.3183 43.6661Q46.4392 43.811 46.6301 44.0698L46.6327 44.0734Q46.8739 44.3986 47.0123 44.5596Q47.2354 44.819 47.4543 44.9889Q47.9954 45.4092 48.697 45.4092Q49.4002 45.4092 49.942 44.9888Q50.161 44.8188 50.3841 44.5594Q50.5225 44.3986 50.7637 44.0732L50.767 44.0687Q50.9594 43.8093 51.0792 43.6659Q51.2376 43.4764 51.3724 43.3639Q51.7027 43.0881 52.1306 43.0881Q52.5591 43.0881 52.8897 43.3644Q53.0254 43.4777 53.1836 43.6678Q53.3046 43.8132 53.4954 44.073L53.4958 44.0735L53.4966 44.0746L53.4975 44.0758Q53.7387 44.4011 53.8771 44.562Q54.1001 44.8214 54.319 44.9913Q54.8602 45.4116 55.5618 45.4116Q56.3308 45.4116 56.7451 44.9042Q56.9059 44.7073 57.0291 44.4219Q57.1048 44.2466 57.2006 43.9365Q57.201 43.9354 57.2056 43.9207Q57.2651 43.7288 57.2992 43.631Q57.3853 43.3844 57.4748 43.2797L57.5488 43.1934L57.6527 43.1475Q57.7869 43.0883 57.9982 43.0883Q58.0414 43.0883 58.0979 43.0735Q58.1665 43.0562 58.2368 43.0562Q58.183 43.0562 58.1275 43.0702L58.1339 43.0686L58.1404 43.0671Q58.1073 43.0746 58.087 43.0834Q58.1109 43.073 58.1293 43.066Q58.1392 43.0621 58.162 43.0538Q58.1765 43.0485 58.1801 43.0471Q58.1768 43.0483 58.1704 43.0516L58.1773 43.0481L58.1845 43.0448Q58.1852 43.0444 58.2007 43.0358Q58.2334 43.0175 58.255 43.0066L58.4803 43.453L58.2213 43.0253Q58.2464 43.01 58.2717 42.993L58.5508 43.4078L58.255 43.0048Q58.2664 42.9963 58.2709 42.9918L58.2812 42.9813L58.2922 42.9716Q58.3025 42.9624 58.3297 42.9348L58.6848 43.2869L58.3117 42.954Q58.3274 42.9364 58.3542 42.9026L58.746 43.2133L58.3351 42.9282Q58.343 42.917 58.3562 42.8986Q58.3694 42.8801 58.3724 42.8754L58.4287 42.7861L58.5163 42.7272Q58.4593 42.7655 58.4208 42.8199Q58.411 42.8337 58.4039 42.8466L58.4038 42.8464L58.8518 43.0685L59.1697 43.4545L59.1692 43.4548L58.4115 42.8312ZM59.2912 43.3066L58.8514 43.0688L58.5335 42.6829L58.534 42.6825L59.2998 43.2905Q59.2145 43.4626 59.0745 43.5569L58.7954 43.1421L59.2183 43.4087Q59.1994 43.4388 59.1687 43.4816Q59.16 43.4937 59.1568 43.4982L59.1477 43.5114L59.1378 43.5239Q59.093 43.5803 59.058 43.6196L59.0493 43.6294L59.04 43.6388Q58.9921 43.6871 58.9599 43.7159L58.6261 43.3438L58.9812 43.6957Q58.9214 43.7561 58.8466 43.8109L58.8383 43.817L58.8299 43.8228Q58.7847 43.8531 58.7392 43.8806L58.7228 43.8906L58.7055 43.8993Q58.7032 43.9005 58.6894 43.9082Q58.6412 43.9352 58.6067 43.9513L58.3956 43.498L58.6208 43.9445Q58.5748 43.9677 58.5049 43.9932Q58.4913 43.9982 58.4832 44.0013Q58.4881 43.9994 58.4918 43.9978Q58.4916 43.9979 58.4888 43.9991Q58.4205 44.0292 58.3592 44.0428L58.2498 43.5551L58.3721 44.0398Q58.3072 44.0562 58.2368 44.0562Q58.2907 44.0562 58.3499 44.0413Q58.1695 44.0883 57.9982 44.0883Q57.9828 44.0883 57.9732 44.089Q57.972 44.0891 57.9717 44.0892Q57.9739 44.0889 57.977 44.0883Q58.0122 44.0819 58.0566 44.0623L57.8547 43.6049L58.2346 43.9299Q58.2628 43.897 58.2789 43.8666Q58.28 43.8645 58.2801 43.8644Q58.2786 43.8674 58.2765 43.8723Q58.2635 43.9028 58.2434 43.9603Q58.215 44.0417 58.1606 44.217Q58.1581 44.2253 58.156 44.2319Q58.0443 44.5934 57.9472 44.8182Q57.7688 45.2317 57.5197 45.5366Q57.1909 45.9393 56.7393 46.1591Q56.2205 46.4116 55.5618 46.4116Q54.5175 46.4116 53.7057 45.7812Q53.4074 45.5496 53.1189 45.2141Q52.9569 45.0258 52.6942 44.6714L52.6934 44.6702L52.6925 44.6691L52.6895 44.665Q52.3759 44.2382 52.2486 44.1318Q52.213 44.1021 52.1926 44.0948Q52.174 44.0881 52.1306 44.0881Q52.0874 44.0881 52.069 44.0947Q52.0488 44.1019 52.0133 44.1316Q51.8873 44.2367 51.5703 44.6643L51.567 44.6688Q51.3042 45.0233 51.1422 45.2117Q50.8535 45.5472 50.555 45.7788Q49.7427 46.4092 48.697 46.4092Q47.6527 46.4092 46.8409 45.7788Q46.5427 45.5471 46.2541 45.2117Q46.0922 45.0233 45.8294 44.6689L45.8253 44.6633Q45.5114 44.2378 45.3843 44.1318Q45.3486 44.1022 45.3281 44.0948Q45.3093 44.0881 45.2658 44.0881Q45.2236 44.0881 45.2057 44.0946Q45.1854 44.1018 45.1495 44.1318Q45.0219 44.2384 44.7063 44.6659Q44.4453 45.0195 44.282 45.2098Q43.9935 45.5463 43.6946 45.7788Q42.8811 46.4116 41.8346 46.4116Q40.7889 46.4116 39.9766 45.7814Q39.6781 45.5497 39.3894 45.2141Q39.2274 45.0258 38.9647 44.6714L38.9638 44.6702L38.963 44.6691L38.9605 44.6658Q38.6467 44.2402 38.5196 44.1343Q38.4839 44.1046 38.4633 44.0973Q38.4445 44.0906 38.401 44.0906Q38.3578 44.0906 38.3394 44.0972Q38.3193 44.1044 38.2838 44.134Q38.1578 44.2391 37.8415 44.6659Q37.5797 45.0206 37.4178 45.2096Q37.1295 45.5461 36.8309 45.7787Q36.0179 46.4116 34.9698 46.4116Q33.9256 46.4116 33.1137 45.7812Q32.8155 45.5496 32.5269 45.2141Q32.365 45.0258 32.1022 44.6714L32.1005 44.6691L32.0997 44.668L32.0981 44.6658Q31.7843 44.2402 31.6571 44.1343Q31.6214 44.1046 31.6009 44.0973Q31.5821 44.0906 31.5386 44.0906Q31.4965 44.0906 31.4785 44.097Q31.4582 44.1042 31.4223 44.1343Q31.2947 44.2408 30.9791 44.6682Q30.7181 45.022 30.5549 45.2123Q30.2664 45.5487 29.9674 45.7812Q29.154 46.4141 28.1074 46.4141Q27.0631 46.4141 26.2513 45.7837Q25.953 45.552 25.6645 45.2166Q25.5025 45.0281 25.2398 44.6738L25.2381 44.6715L25.2373 44.6703L25.2357 44.6682Q24.9218 44.2427 24.7947 44.1367Q24.759 44.1069 24.7385 44.0997Q24.7197 44.093 24.6762 44.093Q24.634 44.093 24.6161 44.0995Q24.5958 44.1067 24.5599 44.1366Q24.4323 44.2433 24.1166 44.6707Q23.8557 45.0244 23.6924 45.2147Q23.4039 45.5511 23.105 45.7837Q22.2915 46.4165 21.245 46.4165Q20.8213 46.4165 20.445 46.2462Q20.0665 46.075 19.7929 45.7581Q19.4819 45.4004 19.3358 44.9014Q19.2092 44.469 19.1959 43.8834Q19.1848 43.395 19.2518 42.6951Q19.2992 42.201 19.4205 41.2877L19.4251 41.2524Q19.5333 40.4274 19.5753 39.9945Q19.6458 39.2671 19.6181 38.955L20.1161 38.9106L20.2128 39.4012Q19.7116 39.5001 19.013 40.0887Q18.3329 40.662 17.5612 41.6257Q16.8512 42.5126 16.1607 43.6067Q15.5151 44.6294 15.0211 45.6165Q14.8383 45.9856 14.4887 46.2018Q14.1414 46.4166 13.7336 46.4166Q13.6646 46.4166 13.6146 46.4103L13.6772 45.9142L13.6487 46.4135Q13.2172 46.3888 12.8706 46.1288Q12.5241 45.8689 12.3787 45.4613Q12.1776 44.9005 11.9832 44.1901Q11.6441 42.951 11.4807 41.7769Q11.258 40.1759 11.3898 38.8638Q11.5566 37.204 12.2863 36.0756Q12.8948 35.1362 13.8652 34.6056Q14.8221 34.0823 16.0501 34.0022Q16.8622 33.9486 17.3372 33.7535Q17.5037 33.6851 17.5939 33.6129Q17.6194 33.5927 17.631 33.5782Q17.6275 33.5825 17.6211 33.5984Q17.6044 33.6393 17.6065 33.6652Q17.605 33.6465 17.5903 33.608Q17.5382 33.472 17.3992 33.313Q17.179 33.0602 16.8388 32.8535Q16.4672 32.6278 16.0195 32.4996Q15.5303 32.3597 15.0074 32.3541Q14.4331 32.348 13.8581 32.5057Q13.0386 32.7294 12.1482 33.3909Q11.2638 34.0479 10.4469 35.0339Q9.62396 36.0272 9.00339 37.1932Q8.36246 38.3976 8.03342 39.6086Q7.71161 40.7977 7.75485 41.8043Q7.81384 43.1783 8.56763 43.959Q8.77078 44.1708 8.87567 44.4435Q8.97668 44.7062 8.97256 44.9885Q8.96848 45.2709 8.86002 45.5303Q8.74744 45.7996 8.53757 46.0061Q8.32745 46.2114 8.05682 46.318Q7.7944 46.4214 7.51224 46.4175Q7.22974 46.4137 6.97012 46.303Q6.70206 46.1887 6.49747 45.9769Q5.28409 44.7213 4.96878 42.8502Q4.66116 41.0247 5.25269 38.8464Q5.63419 37.4404 6.38721 35.9961Q7.14984 34.5334 8.16428 33.281Q9.23837 31.955 10.4424 31.0577Q11.7607 30.0752 13.1033 29.7092Q14.1025 29.4366 15.1056 29.4568Q16.0331 29.4755 16.9074 29.7422Q17.7233 29.9911 18.4203 30.4324Q19.0898 30.8562 19.566 31.403Q20.2254 32.158 20.4194 33.0088Q20.6206 33.8907 20.2867 34.7036Q19.9328 35.5636 19.0688 36.1082Q18.0019 36.7806 16.2379 36.8966Q15.667 36.9342 15.2831 37.1322Q14.9258 37.3165 14.7035 37.6589Q14.2395 38.376 14.2269 39.7656Q14.2164 40.9332 14.524 42.4142L14.0345 42.5159L13.609 42.2533Q15.0431 39.9305 16.4759 38.511Q18.5755 36.4305 20.5025 36.4912Q20.9191 36.5056 21.2854 36.6831Q21.6542 36.8618 21.9192 37.1794Q22.386 37.7346 22.4742 38.6769L21.9763 38.7234L21.6987 38.3076Q22.4409 37.812 23.2268 37.4209Q24.152 36.9606 25.2179 36.6027Q27.6895 35.7728 31.1682 35.4185L31.2188 35.9159L30.7332 36.0347Q28.8545 28.3539 29.1896 21.167Q29.4599 15.3698 31.1517 10.1414Q31.8239 8.06372 32.7022 6.14185Q33.415 4.58215 34.2343 3.18701Q34.8387 2.15808 35.45 1.30249Q35.7992 0.813843 36.0523 0.512817L36.0654 0.497192L36.0798 0.482666Q36.1042 0.45813 36.1346 0.433838Q36.0941 0.466187 36.0595 0.512695L36.0747 0.492188L36.0919 0.473389Q36.1493 0.410645 36.2232 0.347534L36.5479 0.727783L36.1927 0.375854Q36.2582 0.309814 36.3276 0.263184Q36.373 0.232544 36.4495 0.189575Q36.462 0.182495 36.468 0.179077L36.7148 0.613892L36.4481 0.19104Q36.5156 0.148438 36.5781 0.120483Q36.6756 0.0791016 36.7877 0.0507812L36.8129 0.0444336L36.8387 0.0407715Q36.8047 0.0456543 36.7835 0.0527344Q36.8049 0.0455322 36.8209 0.0408936L36.8353 0.0367432L36.85 0.0334473Q36.9993 0 37.157 0L37.1655 0L37.3128 0.00500488L37.2957 0.504761L37.2957 0.00476074Q37.6149 0.00476074 37.9025 0.138672Q38.1911 0.273193 38.3949 0.516724Q38.6442 0.811768 38.9958 1.30322Q39.6046 2.15405 40.2072 3.17834Q41.0237 4.56628 41.7349 6.11841Q42.6111 8.03052 43.2834 10.0979Q44.9748 15.3002 45.2572 21.0692Q45.6074 28.2208 43.7622 35.8647L43.2762 35.7474L43.3057 35.2483Q48.1456 35.5347 51.7123 36.621Q54.6156 37.5051 56.5664 38.8824Q58.0079 39.9003 58.8138 41.095Q59.0828 41.4937 59.2539 41.8748Q59.3575 42.1056 59.4049 42.2819Q59.4141 42.3188 59.4189 42.3627Q59.4164 42.3402 59.4096 42.3127L59.4151 42.335L59.4334 42.4553Q59.4478 42.5566 59.4478 42.625Q59.4478 42.599 59.4452 42.5779Q59.4501 42.6179 59.4501 42.6536Q59.4501 42.7018 59.4423 42.7646Q59.4417 42.7687 59.4417 42.7695L58.9454 42.7081L59.4442 42.7434L59.4441 42.7451L59.444 42.7467Q59.4368 42.848 59.4228 42.9141L58.9337 42.8102L59.427 42.8916Q59.4191 42.9397 59.4002 43.0159L59.397 43.0288L59.3931 43.0414Q59.3918 43.0458 59.388 43.0593Q59.3682 43.1298 59.3488 43.1766L58.8867 42.9858L59.3614 43.1426Q59.3324 43.2303 59.2912 43.3066ZM38.0972 38.1713L40.5289 38.1713L40.5289 38.6713L40.0504 38.5262Q41.9149 32.3727 42.2957 26.4862Q42.621 21.4583 41.8585 16.7388Q41.2375 12.8953 39.9221 9.40271Q38.9444 6.80701 37.6649 4.60559L38.0972 4.35425L38.5972 4.35425L38.5972 38.6713L38.0972 38.6713L38.0972 38.1713ZM37.5972 39.1713L37.5972 2.49902L38.5294 4.10303Q39.8509 6.37646 40.8579 9.05017Q42.2087 12.6367 42.8457 16.5793Q43.6262 21.4102 43.2936 26.5508Q42.9054 32.5522 41.0074 38.8162L40.8998 39.1713L38.0972 39.1713L37.5972 39.1713ZM36.7158 4.60339L36.7158 39.1713L33.5519 39.1713L33.4443 38.8163Q31.5809 32.6671 31.1772 26.7606Q30.8304 21.6852 31.567 16.9005Q32.1714 12.974 33.4806 9.38562Q34.468 6.67908 35.7805 4.3573L36.7158 4.60339ZM35.7158 4.60339L36.2158 4.60339L36.651 4.84949Q35.3791 7.09937 34.42 9.72827Q33.1447 13.2239 32.5553 17.0526Q31.8356 21.7277 32.1749 26.6924Q32.5709 32.4857 34.4014 38.5262L33.9229 38.6713L33.9229 38.1713L36.2158 38.1713L36.2158 38.6713L35.7158 38.6713L35.7158 4.60339ZM55.3366 43.6835Q55.3084 43.7164 55.2923 43.7469Q55.2912 43.7489 55.2911 43.7491Q55.2925 43.7461 55.2947 43.7411Q55.3077 43.7106 55.3278 43.6531Q55.3562 43.5715 55.4106 43.3964L55.4112 43.3944L55.4118 43.3925L55.4124 43.3905L55.413 43.3885Q55.4133 43.3877 55.4154 43.3809L55.8929 43.5292L55.958 44.0249L55.1831 44.1267L55.4146 43.381Q55.5514 42.9403 55.692 42.6542Q55.9449 42.1393 56.3224 41.8047L56.6541 42.1788L56.2605 42.4873Q55.8133 41.9166 55.0905 41.3771Q54.104 40.6406 52.7126 40.0496Q50.9892 39.3176 48.7318 38.8481Q46.0789 38.2963 42.7649 38.1239L42.7909 37.6246L43.2729 37.7572Q42.9467 38.9431 42.5927 40.0631Q42.4501 40.5135 42.0719 40.7932Q41.6914 41.0746 41.2199 41.0746L33.229 41.0746Q32.7575 41.0746 32.377 40.7932Q31.9988 40.5135 31.8563 40.0632Q31.5443 39.0664 31.2234 37.9155L31.7051 37.7812L31.7523 38.2791Q27.8032 38.6542 25.3156 39.6732Q24.3459 40.0704 23.4968 40.6057Q22.9223 40.968 22.1496 41.5714L21.8418 41.1774L22.3375 41.2428Q22.3303 41.2974 22.3165 41.4066Q22.2939 41.585 22.2806 41.6807Q22.1782 42.4545 22.1356 42.8738Q22.0635 43.5817 22.0802 43.9174L21.5808 43.9421L21.3254 43.5123Q21.4464 43.4404 21.8057 42.9509L21.8079 42.9479L21.8087 42.9468L21.8104 42.9445Q22.0732 42.5901 22.2352 42.4017Q22.5239 42.0662 22.8224 41.8345Q23.6347 41.2042 24.6804 41.2042Q25.7247 41.2042 26.5365 41.8346Q26.8348 42.0662 27.1233 42.4017Q27.2853 42.5901 27.548 42.9445L27.5497 42.9468L27.5505 42.9479L27.5514 42.949Q27.866 43.3756 27.9931 43.4814Q28.0288 43.5112 28.0493 43.5186Q28.0681 43.5253 28.1116 43.5253Q28.1548 43.5253 28.1732 43.5187Q28.1933 43.5115 28.2289 43.4818Q28.3549 43.3766 28.6718 42.9491L28.6727 42.9479L28.6735 42.9468L28.6752 42.9445Q28.9379 42.5901 29.1 42.4017Q29.3887 42.0662 29.6872 41.8345Q30.4995 41.2042 31.5452 41.2042Q32.5894 41.2042 33.4012 41.8346Q33.6995 42.0662 33.9881 42.4017Q34.1501 42.5901 34.4128 42.9445L34.4136 42.9456L34.4145 42.9468L34.4153 42.9479L34.4162 42.949Q34.7321 43.3752 34.8596 43.4814Q34.8956 43.5115 34.916 43.5188Q34.9341 43.5253 34.9764 43.5253Q35.0196 43.5253 35.038 43.5187Q35.0581 43.5115 35.0937 43.4818Q35.2197 43.3766 35.5366 42.9491Q35.7977 42.5951 35.9596 42.4061Q36.2479 42.0696 36.5466 41.8372Q37.3596 41.2042 38.4076 41.2042Q39.4518 41.2042 40.2637 41.8346Q40.562 42.0662 40.8505 42.4017Q41.0125 42.5901 41.2752 42.9445L41.276 42.9456L41.2769 42.9468L41.2786 42.949Q41.5948 43.3773 41.7224 43.4836Q41.7584 43.5137 41.779 43.521Q41.7977 43.5276 41.8412 43.5276Q41.8844 43.5276 41.9027 43.5211Q41.9229 43.5139 41.9584 43.4843Q42.0844 43.379 42.4014 42.9515L42.4022 42.9503L42.4031 42.9492L42.4048 42.9469Q42.6675 42.5925 42.8295 42.4042Q43.1182 42.0686 43.4167 41.8369Q44.2291 41.2067 45.2747 41.2067Q46.319 41.2067 47.1308 41.837Q47.4291 42.0686 47.7176 42.4042Q47.8796 42.5925 48.1423 42.9469L48.1432 42.948L48.144 42.9492L48.1449 42.9503L48.1457 42.9514Q48.4603 43.3781 48.5874 43.4839Q48.6231 43.5137 48.6436 43.521Q48.6624 43.5276 48.7059 43.5276Q48.7494 43.5276 48.7681 43.521Q48.7887 43.5137 48.8247 43.4836Q48.9522 43.3773 49.2679 42.9498Q49.5288 42.5963 49.692 42.4059Q49.9805 42.0696 50.2795 41.837Q51.093 41.2042 52.1395 41.2042Q53.1852 41.2042 53.9975 41.8345Q54.296 42.0662 54.5847 42.4017Q54.7467 42.5901 55.0094 42.9445L55.0103 42.9456L55.0111 42.9468L55.0128 42.949Q55.3288 43.3752 55.4563 43.4814Q55.4922 43.5115 55.5127 43.5188Q55.5308 43.5253 55.5731 43.5253Q55.5883 43.5253 55.598 43.5244Q55.5992 43.5243 55.5995 43.5243Q55.5974 43.5245 55.5942 43.5251Q55.559 43.5316 55.5145 43.5511L55.7165 44.0085L55.3366 43.6835ZM56.0964 44.3337L56.0225 44.42L55.9185 44.4659Q55.7844 44.5253 55.5731 44.5253Q55.1467 44.5253 54.8161 44.2498Q54.6809 44.1371 54.5224 43.9479Q54.4013 43.8033 54.2095 43.5446L54.2078 43.5424L54.207 43.5411L54.2061 43.54Q53.9649 43.2147 53.8265 43.0538Q53.6035 42.7946 53.3844 42.6245Q52.8427 42.2042 52.1395 42.2042Q51.4361 42.2042 50.8935 42.6263Q50.674 42.797 50.4511 43.057Q50.3117 43.2194 50.0724 43.5438Q49.8806 43.8036 49.7594 43.9486Q49.6007 44.1387 49.465 44.2517Q49.1341 44.5276 48.7059 44.5276Q48.2779 44.5276 47.9473 44.2522Q47.8117 44.1392 47.6534 43.9496Q47.5325 43.8048 47.3424 43.547L47.3416 43.5459L47.3407 43.5447L47.3398 43.5436L47.339 43.5425Q47.0978 43.2172 46.9594 43.0562Q46.7364 42.7969 46.5175 42.6268Q45.9763 42.2067 45.2747 42.2067Q44.5715 42.2067 44.0298 42.627Q43.8107 42.797 43.5876 43.0563Q43.4492 43.2172 43.208 43.5425L43.2064 43.5448L43.2055 43.5459L43.2047 43.547Q43.0124 43.8065 42.8925 43.9498Q42.7341 44.1393 42.5993 44.2518Q42.269 44.5276 41.8412 44.5276Q41.413 44.5276 41.0821 44.2518Q40.9465 44.1387 40.7877 43.9487Q40.6665 43.8036 40.4753 43.5446L40.4736 43.5424L40.4727 43.5411L40.4719 43.54Q40.2307 43.2147 40.0923 43.0537Q39.8692 42.7944 39.6503 42.6244Q39.1092 42.2042 38.4076 42.2042Q37.7029 42.2042 37.1609 42.6262Q36.9418 42.7968 36.7191 43.0568Q36.5808 43.2181 36.3399 43.5446Q36.1476 43.8041 36.0277 43.9474Q35.8694 44.1368 35.7346 44.2494Q35.4043 44.5253 34.9764 44.5253Q34.5501 44.5253 34.2195 44.2498Q34.0843 44.1371 33.9257 43.9479Q33.8047 43.8033 33.6129 43.5446L33.612 43.5435L33.6111 43.5424L33.6103 43.5411L33.6094 43.54Q33.3683 43.2147 33.2299 43.0537Q33.0068 42.7944 32.7879 42.6244Q32.2467 42.2042 31.5452 42.2042Q30.842 42.2042 30.3002 42.6245Q30.0812 42.7946 29.8581 43.0538Q29.7197 43.2148 29.4785 43.54L29.4768 43.5424L29.476 43.5435L29.4752 43.5446Q29.2828 43.8041 29.163 43.9474Q29.0046 44.1368 28.8698 44.2494Q28.5395 44.5253 28.1116 44.5253Q27.6836 44.5253 27.3529 44.2498Q27.2174 44.1368 27.0591 43.9471Q26.9382 43.8024 26.7481 43.5446L26.7472 43.5435L26.7464 43.5424L26.7447 43.54Q26.5035 43.2147 26.3651 43.0537Q26.1421 42.7944 25.9232 42.6244Q25.382 42.2042 24.6804 42.2042Q23.9772 42.2042 23.4355 42.6245Q23.2164 42.7946 22.9933 43.0538Q22.8549 43.2148 22.6137 43.54L22.6121 43.5424L22.6112 43.5435L22.6118 43.5427Q22.373 43.8679 22.2274 44.0321Q22.026 44.2592 21.8362 44.3719L21.1225 44.7961L21.0814 43.9669Q21.061 43.5557 21.1407 42.7726Q21.1849 42.3383 21.2902 41.5426Q21.3027 41.4531 21.3244 41.2811Q21.3386 41.1688 21.3462 41.1118L21.3729 40.9092L21.5341 40.7833Q22.3464 40.1489 22.9635 39.7599Q23.8862 39.1781 24.9365 38.7478Q27.5612 37.6726 31.6578 37.2834L32.0743 37.2439L32.1867 37.647Q32.5034 38.7827 32.8097 39.7616Q32.8543 39.9025 32.9716 39.9891Q33.087 40.0746 33.229 40.0746L41.2199 40.0746Q41.3619 40.0746 41.4774 39.9891Q41.5946 39.9025 41.6392 39.7617Q41.9875 38.6597 42.3088 37.4921L42.4154 37.1044L42.8168 37.1252Q46.2075 37.3016 48.9355 37.869Q51.2894 38.3586 53.1035 39.1292Q54.6057 39.7672 55.6887 40.5757Q56.5182 41.1949 57.0476 41.8705L57.338 42.241L56.9857 42.5531Q56.7556 42.757 56.5896 43.095Q56.4834 43.3113 56.3696 43.6776L55.8921 43.5293L55.827 43.0336L56.602 42.9318L56.3704 43.6775Q56.3701 43.6786 56.3692 43.6813L56.3687 43.6831L56.368 43.6851L56.3675 43.6869L56.3669 43.6888L56.3662 43.6908L56.3657 43.6927Q56.3061 43.8846 56.272 43.9824Q56.1859 44.229 56.0964 44.3337Z" fill="#222532" fill-opacity="1.000000" fill-rule="nonzero"/>
	<path d="M6.57 30.26C6.45 30.11 5.36 28.85 3.96 28.85C3.32 28.85 2.39 29.12 1.67 30.39L0.86 31.82L7.88 31.82L6.57 30.26Z" fill="#FFFFFF" fill-opacity="1.000000" fill-rule="nonzero"/>
	<path d="M3.96 28.85C3.32 28.85 2.39 29.12 1.67 30.39L0.86 31.82L7.88 31.82L6.57 30.26C6.45 30.11 5.36 28.85 3.96 28.85Z" stroke="#222532" stroke-opacity="1.000000" stroke-width="1.000000"/>
	<mask id="mask_0_2959" fill="white">
		<path d="M5.71948 33.8013L4.7529 33.6992C4.7529 33.6992 2.83154 33.4951 1.57809 35.0068C0.682098 36.0865 0.416351 37.6957 0.790283 39.7889L1.10541 41.5688L2.37769 40.2968C2.49527 40.1781 5.2421 37.4038 5.59723 34.7742L5.71948 33.8013ZM3.02438 36.2244C2.85742 36.4237 2.73279 36.6776 2.64575 36.9767L2.64578 36.9767C2.84567 36.6753 3.03851 36.3596 3.20312 36.0416C3.14197 36.0962 3.08084 36.1555 3.02438 36.2244Z" clip-rule="evenodd" fill="" fill-opacity="1.000000" fill-rule="evenodd"/>
	</mask>
	<path d="M5.71948 33.8013L4.7529 33.6992C4.7529 33.6992 2.83154 33.4951 1.57809 35.0068C0.682098 36.0865 0.416351 37.6957 0.790283 39.7889L1.10541 41.5688L2.37769 40.2968C2.49527 40.1781 5.2421 37.4038 5.59723 34.7742L5.71948 33.8013ZM3.02438 36.2244C2.85742 36.4237 2.73279 36.6776 2.64575 36.9767L2.64578 36.9767C2.84567 36.6753 3.03851 36.3596 3.20312 36.0416C3.14197 36.0962 3.08084 36.1555 3.02438 36.2244Z" clip-rule="evenodd" fill="#FFFFFF" fill-opacity="1.000000" fill-rule="evenodd" mask="url(#mask_0_2959)"/>
	<path d="M5.66699 34.2985L4.70041 34.1964Q4.61194 34.187 4.44434 34.1908Q4.09274 34.1987 3.74136 34.2748Q2.63617 34.514 1.96301 35.3259Q1.37723 36.0319 1.20129 37.0991Q1.01721 38.2159 1.28247 39.7009L1.59775 41.4817L1.10541 41.5688L0.751892 41.2152L2.02417 39.9431Q2.23404 39.7313 2.50497 39.4233Q3.03693 38.8186 3.49243 38.1852Q4.11652 37.3173 4.51181 36.5099Q4.99023 35.5327 5.10172 34.7073L5.22339 33.7389L5.71948 33.8013L5.66699 34.2985ZM6.27914 33.3575L6.09274 34.8412Q5.95956 35.827 5.40994 36.9496Q4.9776 37.8328 4.30432 38.769Q3.82019 39.4423 3.25583 40.0839Q2.96527 40.4142 2.73123 40.6504L0.780365 42.601L0.298065 39.8768Q0.00259399 38.2228 0.21463 36.9365Q0.434631 35.6018 1.19321 34.6876Q1.68567 34.0938 2.36444 33.7253Q2.90247 33.4332 3.52972 33.2974Q3.97464 33.201 4.42188 33.191Q4.65369 33.1858 4.80539 33.2019L5.77197 33.304L6.27914 33.3575ZM3.40771 36.5454Q3.23041 36.7571 3.12585 37.1163L2.64575 36.9767L3.09122 36.7495L3.09122 36.7495L2.64578 36.9767L2.22906 36.7003Q2.54819 36.2191 2.75909 35.8118L3.20312 36.0416L3.53607 36.4146Q3.45734 36.4849 3.41101 36.5414L3.40771 36.5454ZM2.63779 35.9072Q2.73343 35.7906 2.87018 35.6686L3.64716 36.2715Q3.41141 36.7268 3.06247 37.2531L2.5892 37.9666L2.11032 37.0272L2.16568 36.8369Q2.32892 36.276 2.64108 35.9033L2.63779 35.9072Z" fill="#222532" fill-opacity="1.000000" fill-rule="nonzero"/>
	<mask id="mask_0_2962" fill="white">
		<path d="M11.9956 28.416C11.9956 29.408 11.1937 30.2148 10.2107 30.2148C9.22766 30.2148 8.4281 29.408 8.4281 28.416C8.4281 27.424 9.22766 26.6171 10.2107 26.6171C11.196 26.6171 11.9956 27.424 11.9956 28.416ZM10.3094 28.4159C10.3094 28.3613 10.2648 28.3163 10.2107 28.3163C10.1566 28.3163 10.1143 28.3613 10.1143 28.4159C10.1143 28.5251 10.3094 28.5251 10.3094 28.4159Z" clip-rule="evenodd" fill="" fill-opacity="1.000000" fill-rule="evenodd"/>
	</mask>
	<path d="M11.9956 28.416C11.9956 29.408 11.1937 30.2148 10.2107 30.2148C9.22766 30.2148 8.4281 29.408 8.4281 28.416C8.4281 27.424 9.22766 26.6171 10.2107 26.6171C11.196 26.6171 11.9956 27.424 11.9956 28.416ZM10.3094 28.4159C10.3094 28.3613 10.2648 28.3163 10.2107 28.3163C10.1566 28.3163 10.1143 28.3613 10.1143 28.4159C10.1143 28.5251 10.3094 28.5251 10.3094 28.4159Z" clip-rule="evenodd" fill="#FFFFFF" fill-opacity="1.000000" fill-rule="evenodd" mask="url(#mask_0_2962)"/>
	<path d="M12.4956 28.416Q12.4956 28.8822 12.3158 29.3094Q12.1424 29.7216 11.8266 30.0397Q11.5106 30.358 11.1007 30.5331Q10.6751 30.7148 10.2107 30.7148Q9.74622 30.7148 9.32089 30.5331Q8.91125 30.3579 8.59561 30.0393Q8.2804 29.7213 8.10736 29.3091Q7.9281 28.8821 7.9281 28.416Q7.9281 27.9498 8.10736 27.5228Q8.2804 27.1106 8.59561 26.7926Q8.91125 26.474 9.32089 26.299Q9.74622 26.1171 10.2107 26.1171Q10.6759 26.1171 11.1016 26.2988Q11.5117 26.4739 11.8277 26.7924Q12.1431 27.1105 12.3163 27.5228Q12.4956 27.9498 12.4956 28.416ZM11.4956 28.416Q11.4956 28.1512 11.3943 27.91Q11.2964 27.6768 11.1176 27.4966Q10.9394 27.3168 10.709 27.2185Q10.4713 27.1171 10.2107 27.1171Q9.95099 27.1171 9.71399 27.2184Q9.48404 27.3167 9.30591 27.4965Q9.12735 27.6766 9.02942 27.9099Q8.9281 28.1512 8.9281 28.416Q8.9281 28.6807 9.02942 28.922Q9.12732 29.1553 9.30591 29.3354Q9.48404 29.5153 9.71399 29.6135Q9.95099 29.7148 10.2107 29.7148Q10.4705 29.7148 10.7079 29.6135Q10.9384 29.515 11.1169 29.3352Q11.296 29.1548 11.3941 28.9216Q11.4956 28.6804 11.4956 28.416ZM9.80945 28.4159Q9.80945 28.5808 9.9252 28.6976Q10.0428 28.8163 10.2107 28.8163Q10.3837 28.8163 10.5031 28.6917Q10.6143 28.5757 10.6143 28.4159Q10.6143 28.3131 10.566 28.2206Q10.5209 28.1342 10.4437 28.0765Q10.3381 27.9978 10.2119 27.9978Q10.0856 27.9978 9.98004 28.0765Q9.9028 28.1342 9.85773 28.2206Q9.80945 28.3131 9.80945 28.4159ZM10.8094 28.4159Q10.8094 28.5582 10.7444 28.683Q10.6838 28.7992 10.5779 28.8782Q10.4174 28.9978 10.2119 28.9978Q10.0063 28.9978 9.84586 28.8782Q9.7399 28.7992 9.67932 28.683Q9.61426 28.5582 9.61426 28.4159Q9.61426 28.1738 9.78122 27.9996Q9.957 27.8163 10.2107 27.8163Q10.4597 27.8163 10.6355 27.9937Q10.8094 28.1692 10.8094 28.4159Z" fill="#222532" fill-opacity="1.000000" fill-rule="nonzero"/>
</svg>
