<svg width="39.830261" height="23.855957" viewBox="0 0 39.8303 23.856" fill="none" xmlns="http://www.w3.org/2000/svg" xmlns:xlink="http://www.w3.org/1999/xlink">
	<desc>
			Created with Pixso.
	</desc>
	<defs/>
	<path id="Shape" d="M26.27 4.34C26.35 4.26 26.44 4.18 26.53 4.1C26.7 3.95 26.87 3.79 27.04 3.63C27.2 3.47 27.39 3.36 27.56 3.22C27.73 3.08 27.9 2.94 28.07 2.82C28.42 2.59 28.74 2.34 29.08 2.15C29.41 1.97 29.71 1.77 30.02 1.63C30.17 1.55 30.32 1.48 30.45 1.4C30.6 1.34 30.73 1.28 30.86 1.22C31.38 0.98 31.81 0.84 32.11 0.73C32.41 0.63 32.57 0.58 32.57 0.58L32.58 0.58C32.63 0.56 32.68 0.52 32.7 0.46C32.73 0.37 32.67 0.26 32.58 0.23C32.58 0.23 32.4 0.18 32.07 0.12C31.91 0.09 31.7 0.05 31.46 0.04C31.22 0.02 30.93 -0.01 30.62 0C30.46 0 30.29 0 30.12 0.01C29.94 0.02 29.76 0.04 29.57 0.06C29.19 0.08 28.78 0.17 28.34 0.26C28.12 0.3 27.9 0.37 27.67 0.44C27.44 0.51 27.21 0.58 26.97 0.66C26.5 0.85 26 1.04 25.51 1.31C25.26 1.44 25.01 1.58 24.76 1.73C24.64 1.81 24.51 1.89 24.38 1.96C24.26 2.05 24.14 2.14 24.02 2.23C23.78 2.41 23.53 2.6 23.28 2.79C23.02 2.97 22.82 3.21 22.58 3.42C22.35 3.65 22.11 3.88 21.88 4.11C21.67 4.36 21.46 4.62 21.25 4.88C21.04 5.15 20.82 5.41 20.63 5.69C20.45 5.98 20.28 6.28 20.1 6.57C19.93 6.88 19.75 7.17 19.6 7.49C19.45 7.82 19.31 8.16 19.18 8.49C19.04 8.83 18.9 9.17 18.77 9.51C18.68 9.83 18.59 10.14 18.5 10.46C18.41 10.78 18.32 11.1 18.23 11.42L18.08 11.95L17.96 12.39C17.92 12.54 17.89 12.68 17.84 12.83L17.69 13.25L17.53 13.68C17.47 13.82 17.4 13.95 17.34 14.09C16.84 15.2 16.17 16.22 15.37 17.13C14.56 18.04 13.65 18.84 12.67 19.51C11.7 20.19 10.67 20.73 9.65 21.19C8.63 21.64 7.63 22 6.69 22.27C4.79 22.83 3.14 23.08 1.99 23.23C0.83 23.38 0.17 23.39 0.17 23.39C0.08 23.39 0.01 23.45 0 23.54C-0.02 23.63 0.05 23.72 0.15 23.73L0.15 23.73C0.15 23.73 0.83 23.82 2.02 23.84C2.62 23.86 3.34 23.85 4.17 23.8C5 23.75 5.95 23.67 6.96 23.49C9 23.15 11.39 22.53 13.74 21.25C14.91 20.62 16.08 19.82 17.11 18.82C18.15 17.83 19.08 16.66 19.81 15.37C19.9 15.21 20 15.06 20.08 14.89L20.33 14.4C20.49 14.07 20.65 13.73 20.79 13.39L21 12.88L21.05 12.75L21.07 12.69L21.08 12.67C21.1 12.61 21.06 12.74 21.06 12.72L21.08 12.7L21.17 12.47C21.31 12.16 21.44 11.85 21.57 11.55C21.7 11.25 21.83 10.94 21.96 10.64C22.11 10.39 22.25 10.13 22.38 9.88C22.52 9.63 22.65 9.39 22.77 9.13C22.91 8.88 23.08 8.65 23.22 8.4C23.37 8.16 23.51 7.92 23.65 7.67C23.79 7.44 23.96 7.22 24.11 7C24.27 6.78 24.4 6.55 24.56 6.33C24.72 6.13 24.88 5.92 25.04 5.72C25.12 5.62 25.2 5.52 25.28 5.42C25.36 5.32 25.43 5.22 25.52 5.14C25.69 4.96 25.86 4.78 26.03 4.6C26.11 4.52 26.19 4.43 26.27 4.34L26.27 4.34Z" fill="#4AF6CD" fill-opacity="1.000000" fill-rule="nonzero"/>
	<path id="Shape" d="M39.7504 23.4614C39.7504 23.4614 39.3797 23.3232 38.7431 23.0391C38.4256 22.8977 38.0433 22.7217 37.6078 22.5105C37.174 22.301 36.6902 22.0518 36.1733 21.7659C35.9172 21.6179 35.6479 21.47 35.3754 21.3071C35.1061 21.1392 34.8285 20.9663 34.5426 20.7883C34.265 20.6023 33.9791 20.4094 33.6882 20.2117C33.4073 20.0039 33.1198 19.791 32.8289 19.575C32.5513 19.3457 32.2704 19.1113 31.9861 18.8752C31.7168 18.6257 31.4459 18.3733 31.1733 18.1189C30.9222 17.8479 30.6696 17.5754 30.4153 17.301C30.1926 17.0103 29.9698 16.7175 29.7454 16.425L29.4645 15.9597L29.3249 15.7302L29.2567 15.6138L29.2534 15.6072L29.2501 15.6023L29.2202 15.5342L28.9741 14.9905C28.8994 14.8145 28.7896 14.615 28.7664 14.4719C28.6866 14.1577 28.5719 13.8801 28.5253 13.5544C28.4954 13.3982 28.4622 13.2437 28.4256 13.0923C28.4106 12.9426 28.3973 12.7932 28.3824 12.6453C28.3724 12.572 28.3575 12.4988 28.3541 12.4275C28.3566 12.3738 28.3563 12.321 28.356 12.2686C28.3559 12.2512 28.3558 12.2336 28.3558 12.2163C28.358 12.1543 28.3546 12.0911 28.3511 12.0283C28.3469 11.9509 28.3427 11.874 28.3491 11.8008C28.3674 11.6694 28.3741 11.5364 28.384 11.405C28.383 11.3201 28.4026 11.2427 28.4221 11.1655C28.4335 11.1206 28.4449 11.0759 28.4522 11.0295C28.5586 10.5391 28.7481 10.0869 29.024 9.72632C29.142 9.52344 29.3132 9.3855 29.4562 9.21436C29.6224 9.08301 29.7787 8.92847 29.9515 8.82544C30.1261 8.729 30.2874 8.59937 30.4602 8.54614C30.6281 8.47803 30.7893 8.38159 30.9439 8.35669C31.0968 8.32007 31.2415 8.27344 31.3678 8.23853C31.4941 8.22363 31.6055 8.21191 31.6969 8.19531C31.8864 8.16699 31.9878 8.1521 31.9878 8.1521L32.0044 8.14893C32.041 8.1438 32.0742 8.12231 32.0942 8.0874C32.1291 8.02759 32.1091 7.95093 32.0493 7.91602C32.0493 7.91602 31.9579 7.8645 31.775 7.77319C31.6836 7.72656 31.5673 7.67334 31.426 7.61182C31.283 7.57031 31.1151 7.52393 30.9189 7.48218C30.5317 7.40405 30.0263 7.37256 29.4545 7.4873C29.3049 7.5022 29.1653 7.55371 29.0174 7.60352C28.8694 7.65503 28.7115 7.70166 28.5587 7.76978C28.2694 7.93115 27.9336 8.0791 27.6561 8.33008C27.3452 8.55103 27.0942 8.85205 26.8266 9.16602C26.7036 9.3291 26.6055 9.51172 26.4925 9.69312C26.441 9.78442 26.3778 9.87598 26.3346 9.97217L26.2149 10.2715C26.1451 10.4744 26.037 10.6804 25.9988 10.8965C25.9539 11.1125 25.9041 11.332 25.8675 11.5564C25.8326 11.7791 25.8392 12.0037 25.8292 12.2312L25.8259 12.5737C25.8326 12.6868 25.8525 12.7964 25.8641 12.9094C25.9008 13.1321 25.9356 13.3567 25.9722 13.5828C26.027 13.8003 26.1019 14.0132 26.1717 14.2275C26.2864 14.6597 26.5341 15.0803 26.7352 15.4976C26.8399 15.7268 26.9512 15.8582 27.0593 16.0327L27.3851 16.5332L27.4266 16.5962L27.4316 16.6045C27.4758 16.6792 27.4644 16.6587 27.4622 16.6548C27.4626 16.6555 27.4634 16.657 27.4649 16.6594L27.4782 16.676L27.5031 16.7078L27.6062 16.8374L27.8073 17.0967L28.2112 17.6135C28.5021 17.9343 28.803 18.2419 29.0955 18.551C29.413 18.8286 29.7288 19.1079 30.043 19.3821C30.3755 19.6316 30.6979 19.8826 31.027 20.1152C31.3661 20.3296 31.6986 20.5425 32.0277 20.752C32.3652 20.9414 32.6959 21.1274 33.0201 21.3086C33.3509 21.4731 33.6767 21.6328 33.9925 21.7891C34.3133 21.9304 34.6259 22.0649 34.9283 22.198C35.2325 22.3242 35.5301 22.4358 35.8126 22.5471C36.9529 22.9744 37.9187 23.2686 38.6035 23.4397C39.2867 23.6143 39.684 23.6907 39.684 23.6907C39.7422 23.7007 39.8004 23.6692 39.822 23.6143C39.8469 23.5544 39.8137 23.4846 39.7505 23.4614L39.7504 23.4614ZM29.2333 15.5725L29.2317 15.5706L29.24 15.5857L29.2433 15.5889C29.24 15.584 29.235 15.5757 29.2333 15.5723L29.2333 15.5725Z" clip-rule="evenodd" fill="#4AF6CD" fill-opacity="1.000000" fill-rule="evenodd"/>
	<path id="Shape" d="M31.4 2.44C30.61 2.6 30.12 2.8 30.12 2.8C30.09 2.81 30.06 2.85 30.06 2.88C30.06 2.93 30.1 2.97 30.15 2.97C30.15 2.97 30.67 2.97 31.43 3.06C31.81 3.1 32.24 3.18 32.7 3.26C33.16 3.36 33.64 3.45 34.11 3.6C34.22 3.64 34.34 3.67 34.45 3.71C34.56 3.76 34.67 3.81 34.78 3.86C35 3.95 35.21 4.06 35.42 4.13C35.63 4.19 35.83 4.25 36.03 4.28C36.24 4.32 36.43 4.35 36.62 4.38C36.8 4.41 36.98 4.42 37.14 4.42C37.3 4.44 37.45 4.45 37.57 4.45C37.82 4.46 37.99 4.44 37.99 4.44L38 4.44C38 4.43 38.01 4.43 38.02 4.43C38.07 4.41 38.1 4.35 38.08 4.29C38.08 4.29 38.03 4.14 37.89 3.92C37.83 3.8 37.74 3.67 37.63 3.53C37.51 3.39 37.37 3.26 37.21 3.12C37.13 3.04 37.04 2.97 36.95 2.9C36.85 2.84 36.76 2.77 36.65 2.72C36.45 2.59 36.21 2.47 35.96 2.41C35.71 2.33 35.44 2.29 35.17 2.28C34.89 2.25 34.62 2.24 34.34 2.23C34.07 2.2 33.8 2.21 33.53 2.2C33.26 2.19 33 2.22 32.75 2.23C32.5 2.26 32.26 2.28 32.03 2.32C31.8 2.36 31.59 2.39 31.4 2.44L31.4 2.44Z" fill="#4AF6CD" fill-opacity="1.000000" fill-rule="nonzero"/>
	<path id="Shape" d="M37.02 8.59C37.18 8.66 37.31 8.74 37.44 8.8C37.68 8.94 37.85 9.02 37.85 9.02L37.86 9.02C37.87 9.03 37.89 9.03 37.9 9.03C37.96 9.03 38 8.98 38 8.93C38 8.93 38 8.88 38 8.8C37.99 8.72 37.99 8.59 37.95 8.44C37.92 8.29 37.87 8.11 37.78 7.91C37.7 7.71 37.57 7.5 37.42 7.29C37.34 7.18 37.26 7.08 37.16 6.97C37.07 6.87 36.97 6.76 36.86 6.67C36.64 6.47 36.38 6.29 36.1 6.14C35.82 6 35.51 5.89 35.2 5.82C34.89 5.73 34.57 5.67 34.25 5.59C33.63 5.45 33 5.35 32.42 5.3C31.83 5.24 31.29 5.23 30.82 5.24C29.89 5.25 29.27 5.34 29.27 5.34C29.24 5.35 29.21 5.38 29.2 5.41C29.19 5.46 29.22 5.51 29.27 5.52C29.27 5.52 29.87 5.63 30.74 5.86C31.18 5.98 31.69 6.12 32.21 6.3C32.48 6.38 32.75 6.49 33.02 6.58C33.29 6.68 33.56 6.79 33.82 6.91C34.08 7.03 34.34 7.17 34.57 7.32C34.81 7.46 35.03 7.61 35.25 7.74C35.48 7.86 35.69 7.97 35.91 8.06C36.12 8.16 36.32 8.25 36.5 8.34C36.69 8.43 36.86 8.51 37.02 8.59L37.02 8.59Z" fill="#4AF6CD" fill-opacity="1.000000" fill-rule="nonzero"/>
	<path id="Shape" d="M36.09 10.67C36.03 10.54 35.94 10.42 35.84 10.29C35.74 10.15 35.61 10.05 35.47 9.95C35.33 9.85 35.16 9.79 35 9.72C34.83 9.66 34.66 9.61 34.49 9.55C34.16 9.44 33.83 9.33 33.51 9.27C33.2 9.2 32.9 9.17 32.64 9.15C32.14 9.09 31.8 9.12 31.8 9.12C31.77 9.12 31.75 9.13 31.73 9.16C31.72 9.19 31.73 9.24 31.77 9.25C31.77 9.25 32.07 9.4 32.5 9.62C32.72 9.74 32.96 9.88 33.22 10.04C33.34 10.12 33.47 10.2 33.6 10.28C33.73 10.36 33.86 10.45 33.98 10.54C34.11 10.63 34.22 10.73 34.33 10.84C34.43 10.95 34.54 11.04 34.64 11.13C34.74 11.21 34.86 11.27 34.97 11.32C35.08 11.38 35.2 11.42 35.31 11.47C35.41 11.51 35.52 11.55 35.62 11.58C35.72 11.61 35.8 11.64 35.89 11.66C36.05 11.71 36.16 11.73 36.16 11.73L36.17 11.73C36.22 11.74 36.27 11.71 36.28 11.66C36.28 11.66 36.3 11.55 36.29 11.37C36.28 11.28 36.27 11.16 36.24 11.05C36.2 10.93 36.15 10.81 36.09 10.67L36.09 10.67Z" fill="#4AF6CD" fill-opacity="1.000000" fill-rule="nonzero"/>
</svg>
