<svg width="26.000000" height="23.832520" viewBox="0 0 26 23.8325" fill="none" xmlns="http://www.w3.org/2000/svg" xmlns:xlink="http://www.w3.org/1999/xlink">
	<desc>
			Created with Pixso.
	</desc>
	<defs/>
	<path id="Shape" d="M17.33 8.66L0 8.66L0 10.83L17.33 10.83C20.32 10.83 22.75 8.4 22.75 5.41C22.75 2.42 20.31 0 17.33 0C14.34 0 11.91 2.43 11.91 5.41L14.08 5.41C14.08 3.62 15.54 2.16 17.33 2.16C19.12 2.16 20.58 3.62 20.58 5.41C20.58 7.2 19.12 8.66 17.33 8.66Z" fill="#4AF6CD" fill-opacity="1.000000" fill-rule="nonzero"/>
	<path id="Shape" d="M20.58 13L0 13L0 15.16L20.58 15.16C22.37 15.16 23.83 16.62 23.83 18.41C23.83 20.2 22.37 21.66 20.58 21.66C18.79 21.66 17.33 20.2 17.33 18.41L15.16 18.41C15.16 21.4 17.59 23.83 20.58 23.83C23.57 23.83 26 21.4 26 18.41C26 15.42 23.56 13 20.58 13Z" fill="#4AF6CD" fill-opacity="1.000000" fill-rule="nonzero"/>
</svg>
